<?xml version="1.0" encoding="UTF-8" standalone="no"?>
<svg
   xmlns:dc="http://purl.org/dc/elements/1.1/"
   xmlns:cc="http://creativecommons.org/ns#"
   xmlns:rdf="http://www.w3.org/1999/02/22-rdf-syntax-ns#"
   xmlns:svg="http://www.w3.org/2000/svg"
   xmlns="http://www.w3.org/2000/svg"
   viewBox="0 0 520 320"
   height="320"
   width="520"
   xml:space="preserve"
   id="svg2"
   version="1.1"><metadata
     id="metadata8"><rdf:RDF><cc:Work
         rdf:about=""><dc:format>image/svg+xml</dc:format><dc:type
           rdf:resource="http://purl.org/dc/dcmitype/StillImage" /><dc:title></dc:title></cc:Work></rdf:RDF></metadata><defs
     id="defs6"><clipPath
       id="clipPath20"
       clipPathUnits="userSpaceOnUse"><path
         id="path18"
         d="M 0,6 H 3900 V 2396 H 0 Z" /></clipPath></defs><g
     transform="matrix(1.3333333,0,0,-1.3333333,0,320)"
     id="g10"><g
       transform="scale(0.1)"
       id="g12"><g
         id="g14"><g
           clip-path="url(#clipPath20)"
           id="g16"><path
             id="path22"
             style="fill:#d5e8d4;fill-opacity:1;fill-rule:nonzero;stroke:none"
             d="m 76.9883,814.199 h 3168.01 v 216.02 H 76.9883 Z" /><path
             id="path24"
             style="fill:none;stroke:#82b366;stroke-width:10;stroke-linecap:butt;stroke-linejoin:miter;stroke-miterlimit:10;stroke-dasharray:none;stroke-opacity:1"
             d="m 76.9883,814.199 h 3168.01 v 216.02 H 76.9883 Z" /><path
             id="path26"
             style="fill:#000000;fill-opacity:1;fill-rule:nonzero;stroke:none"
             d="m 1208.01,923.191 c 0.39,-2.851 1.13,-4.961 2.3,-6.371 2.11,-2.539 5.71,-3.832 10.82,-3.832 3.09,0 5.59,0.313 7.5,1.024 3.64,1.289 5.43,3.668 5.43,7.187 0,2.071 -0.9,3.672 -2.69,4.762 -1.8,1.129 -4.65,2.07 -8.48,2.93 l -6.6,1.488 c -6.45,1.441 -10.94,3.043 -13.4,4.762 -4.18,2.847 -6.29,7.339 -6.29,13.441 0,5.578 2.03,10.188 6.06,13.898 4.06,3.68 10,5.508 17.85,5.508 6.56,0 12.15,-1.718 16.79,-5.187 4.61,-3.481 7.04,-8.52 7.27,-15.121 h -12.5 c -0.23,3.711 -1.84,6.371 -4.88,7.968 -2.03,1.012 -4.53,1.563 -7.54,1.563 -3.36,0 -6.02,-0.699 -8.05,-2.031 -1.99,-1.371 -2.97,-3.239 -2.97,-5.66 0,-2.231 0.98,-3.872 2.93,-4.969 1.29,-0.742 3.99,-1.602 8.13,-2.571 l 10.7,-2.582 c 4.69,-1.128 8.24,-2.617 10.63,-4.527 3.71,-2.93 5.58,-7.152 5.58,-12.699 0,-5.66 -2.19,-10.391 -6.52,-14.141 -4.34,-3.75 -10.51,-5.621 -18.44,-5.621 -8.09,0 -14.45,1.828 -19.1,5.539 -4.65,3.672 -6.95,8.789 -6.95,15.242 z m 94.14,31.989 h -32.89 v -13.2 h 30.19 v -10.82 h -30.19 v -15.98 h 34.41 v -11.168 h -47.11 v 62.187 h 45.59 z m 24.61,0.199 v -16.68 h 14.72 c 2.93,0 5.12,0.313 6.61,0.973 2.57,1.207 3.86,3.519 3.86,7.027 0,3.75 -1.25,6.289 -3.75,7.582 -1.4,0.739 -3.51,1.098 -6.32,1.098 z m 27.89,9.211 c 2.34,-1.008 4.33,-2.461 5.97,-4.371 1.33,-1.559 2.43,-3.321 3.21,-5.199 0.78,-1.911 1.17,-4.098 1.17,-6.559 0,-2.93 -0.74,-5.859 -2.23,-8.711 -1.48,-2.852 -3.94,-4.879 -7.38,-6.051 2.85,-1.14 4.88,-2.777 6.09,-4.929 1.18,-2.11 1.8,-5.348 1.8,-9.719 v -4.18 c 0,-2.82 0.12,-4.769 0.31,-5.781 0.36,-1.61 1.14,-2.781 2.39,-3.52 v -1.558 h -14.3 c -0.39,1.367 -0.7,2.5 -0.86,3.32 -0.35,1.758 -0.51,3.508 -0.55,5.348 l -0.07,5.781 c -0.08,3.988 -0.79,6.598 -2.19,7.93 -1.37,1.328 -3.99,1.988 -7.81,1.988 h -13.4 v -24.367 h -12.74 v 62.187 h 30.51 c 4.38,-0.078 7.73,-0.629 10.08,-1.609 z m 57.85,1.609 h 13.52 l -21.22,-62.187 h -12.3 l -20.98,62.187 h 13.87 l 13.52,-47.23 z m 33.09,-62.187 h -12.89 v 62.187 h 12.89 z m 18.12,55.66 c 5.04,5.117 11.49,7.699 19.3,7.699 10.47,0 18.12,-3.441 22.97,-10.32 2.65,-3.821 4.1,-7.692 4.29,-11.602 h -13 c -0.82,3.012 -1.92,5.242 -3.25,6.762 -2.34,2.699 -5.86,4.059 -10.5,4.059 -4.73,0 -8.44,-1.911 -11.18,-5.7 -2.73,-3.832 -4.1,-9.218 -4.1,-16.211 0,-6.949 1.45,-12.187 4.34,-15.66 2.89,-3.48 6.56,-5.199 10.97,-5.199 4.57,0 8.05,1.48 10.43,4.449 1.33,1.602 2.43,4.031 3.29,7.231 h 12.89 c -1.14,-6.801 -4.03,-12.301 -8.64,-16.52 -4.61,-4.262 -10.54,-6.371 -17.77,-6.371 -8.95,0 -15.98,2.852 -21.09,8.59 -5.12,5.742 -7.7,13.672 -7.7,23.711 0,10.859 2.93,19.219 8.75,25.082 z m 102.27,-4.492 h -32.89 v -13.2 h 30.19 v -10.82 h -30.19 v -15.98 h 34.41 v -11.168 h -47.11 v 62.187 h 45.59 z m 48.2,0.199 v -40.59 h 11.95 c 6.14,0 10.43,3.051 12.85,9.063 1.33,3.32 2,7.308 2,11.878 0,6.321 -1.02,11.168 -3.01,14.571 -1.95,3.398 -5.9,5.078 -11.84,5.078 z m 23.79,9.453 c 4.33,-1.453 7.89,-4.062 10.58,-7.891 2.15,-3.089 3.64,-6.453 4.42,-10.043 0.82,-3.597 1.21,-7.027 1.21,-10.277 0,-8.281 -1.68,-15.269 -5,-21.012 -4.49,-7.73 -11.45,-11.597 -20.82,-11.597 h -26.8 v 62.187 h 26.8 c 3.83,-0.078 7.03,-0.508 9.61,-1.367 z m 37.81,-60.82 h -12.93 v 62.187 h 12.93 z m 21.49,19.179 c 0.39,-2.851 1.17,-4.961 2.3,-6.371 2.11,-2.539 5.74,-3.832 10.86,-3.832 3.05,0 5.55,0.313 7.46,1.024 3.63,1.289 5.43,3.668 5.43,7.187 0,2.071 -0.9,3.672 -2.7,4.762 -1.79,1.129 -4.6,2.07 -8.47,2.93 l -6.6,1.488 c -6.45,1.441 -10.94,3.043 -13.4,4.762 -4.18,2.847 -6.29,7.339 -6.29,13.441 0,5.578 2.03,10.188 6.09,13.898 4.03,3.68 10,5.508 17.82,5.508 6.56,0 12.14,-1.718 16.79,-5.187 4.61,-3.481 7.03,-8.52 7.27,-15.121 h -12.5 c -0.2,3.711 -1.84,6.371 -4.88,7.968 -2.04,1.012 -4.54,1.563 -7.54,1.563 -3.36,0 -6.02,-0.699 -8.01,-2.031 -2.03,-1.371 -3.01,-3.239 -3.01,-5.66 0,-2.231 0.98,-3.872 2.93,-4.969 1.29,-0.742 3.98,-1.602 8.13,-2.571 l 10.7,-2.582 c 4.69,-1.128 8.24,-2.617 10.62,-4.527 3.71,-2.93 5.59,-7.152 5.59,-12.699 0,-5.66 -2.19,-10.391 -6.52,-14.141 -4.34,-3.75 -10.47,-5.621 -18.4,-5.621 -8.13,0 -14.49,1.828 -19.14,5.539 -4.61,3.672 -6.96,8.789 -6.96,15.242 z m 54.21,36.481 c 5.04,5.117 11.49,7.699 19.3,7.699 10.47,0 18.13,-3.441 22.97,-10.32 2.66,-3.821 4.1,-7.692 4.3,-11.602 h -13.01 c -0.82,3.012 -1.92,5.242 -3.24,6.762 -2.35,2.699 -5.86,4.059 -10.51,4.059 -4.73,0 -8.44,-1.911 -11.17,-5.7 -2.74,-3.832 -4.1,-9.218 -4.1,-16.211 0,-6.949 1.44,-12.187 4.33,-15.66 2.89,-3.48 6.56,-5.199 10.98,-5.199 4.57,0 8.05,1.48 10.43,4.449 1.33,1.602 2.42,4.031 3.28,7.231 h 12.89 c -1.13,-6.801 -4.02,-12.301 -8.63,-16.52 -4.61,-4.262 -10.55,-6.371 -17.78,-6.371 -8.94,0 -15.97,2.852 -21.09,8.59 -5.12,5.742 -7.7,13.672 -7.7,23.711 0,10.859 2.93,19.219 8.75,25.082 z m 96.06,-40.703 c 3.01,3.793 4.53,9.222 4.53,16.211 0,6.949 -1.52,12.379 -4.53,16.172 -3.05,3.828 -7.11,5.699 -12.27,5.699 -5.15,0 -9.25,-1.871 -12.3,-5.66 -3.09,-3.832 -4.61,-9.219 -4.61,-16.211 0,-6.989 1.52,-12.418 4.61,-16.211 3.05,-3.789 7.15,-5.699 12.3,-5.699 5.16,0 9.22,1.91 12.27,5.699 z m 8.12,-9.449 c -4.72,-4.848 -11.48,-7.231 -20.39,-7.231 -8.86,0 -15.66,2.383 -20.39,7.231 -6.29,5.929 -9.45,14.492 -9.45,25.66 0,11.41 3.16,19.922 9.45,25.66 4.73,4.808 11.53,7.23 20.39,7.23 8.91,0 15.67,-2.422 20.39,-7.23 6.25,-5.738 9.42,-14.25 9.42,-25.66 0,-11.168 -3.17,-19.731 -9.42,-25.66 z m 55.67,56.679 h 13.51 l -21.21,-62.187 h -12.3 l -20.98,62.187 h 13.87 l 13.48,-47.23 z m 67.19,-11.019 h -32.9 v -13.2 h 30.2 v -10.82 h -30.2 v -15.98 h 34.42 v -11.168 h -47.11 v 62.187 h 45.59 z m 24.6,0.199 v -16.68 h 14.73 c 2.93,0 5.12,0.313 6.56,0.973 2.62,1.207 3.91,3.519 3.91,7.027 0,3.75 -1.25,6.289 -3.75,7.582 -1.41,0.739 -3.52,1.098 -6.33,1.098 z m 27.86,9.211 c 2.34,-1.008 4.33,-2.461 5.97,-4.371 1.37,-1.559 2.43,-3.321 3.21,-5.199 0.78,-1.911 1.17,-4.098 1.17,-6.559 0,-2.93 -0.74,-5.859 -2.23,-8.711 -1.48,-2.852 -3.94,-4.879 -7.38,-6.051 2.89,-1.14 4.92,-2.777 6.09,-4.929 1.21,-2.11 1.8,-5.348 1.8,-9.719 v -4.18 c 0,-2.82 0.12,-4.769 0.35,-5.781 0.31,-1.61 1.13,-2.781 2.34,-3.52 v -1.558 h -14.29 c -0.39,1.367 -0.67,2.5 -0.82,3.32 -0.35,1.758 -0.55,3.508 -0.55,5.348 l -0.08,5.781 c -0.08,3.988 -0.78,6.598 -2.18,7.93 -1.41,1.328 -4.03,1.988 -7.82,1.988 h -13.44 v -24.367 h -12.69 v 62.187 h 30.51 c 4.33,-0.078 7.69,-0.629 10.04,-1.609 z m 56.95,1.609 h 14.73 l -20.78,-38.828 v -23.359 h -13.01 v 23.359 l -21.53,38.828 h 15.32 l 12.93,-27.109 z" /><path
             id="path28"
             style="fill:#fff2cc;fill-opacity:1;fill-rule:nonzero;stroke:none"
             d="m 2453.01,94.1992 h 791.988 v 568.789 H 2453.01 Z" /><path
             id="path30"
             style="fill:none;stroke:#d6b656;stroke-width:10;stroke-linecap:butt;stroke-linejoin:miter;stroke-miterlimit:10;stroke-dasharray:none;stroke-opacity:1"
             d="m 2453.01,94.1992 h 791.988 v 568.789 H 2453.01 Z" /><path
             id="path32"
             style="fill:#000000;fill-opacity:1;fill-rule:nonzero;stroke:none"
             d="m 2577.58,406.781 c -0.98,4.258 -3.36,7.231 -7.19,8.91 -2.15,0.93 -4.53,1.36 -7.15,1.36 -5,0 -9.1,-1.871 -12.34,-5.66 -3.2,-3.789 -4.81,-9.45 -4.81,-17.071 0,-7.66 1.72,-13.05 5.2,-16.211 3.51,-3.199 7.46,-4.808 11.91,-4.808 4.38,0 7.93,1.289 10.71,3.789 2.81,2.539 4.53,5.82 5.15,9.89 h -14.37 v 10.391 h 25.9 v -33.359 h -8.6 l -1.33,7.769 c -2.5,-2.972 -4.76,-5.043 -6.75,-6.25 -3.44,-2.109 -7.66,-3.16 -12.66,-3.16 -8.24,0 -14.96,2.848 -20.23,8.551 -5.47,5.738 -8.25,13.598 -8.25,23.558 0,10.04 2.78,18.122 8.32,24.18 5.55,6.09 12.86,9.141 22,9.141 7.89,0 14.25,-2.031 19.02,-6.02 4.8,-4.019 7.58,-9.019 8.28,-15 z m 38.36,8.598 v -16.68 h 14.72 c 2.93,0 5.12,0.313 6.57,0.973 2.61,1.207 3.9,3.519 3.9,7.027 0,3.75 -1.25,6.289 -3.75,7.582 -1.4,0.739 -3.51,1.098 -6.33,1.098 z m 27.85,9.211 c 2.34,-1.012 4.33,-2.461 5.98,-4.371 1.36,-1.559 2.42,-3.321 3.2,-5.199 0.78,-1.911 1.17,-4.098 1.17,-6.559 0,-2.93 -0.74,-5.859 -2.23,-8.711 -1.48,-2.852 -3.94,-4.879 -7.38,-6.051 2.89,-1.14 4.92,-2.777 6.09,-4.929 1.22,-2.11 1.8,-5.348 1.8,-9.719 v -4.18 c 0,-2.82 0.12,-4.769 0.35,-5.781 0.32,-1.61 1.14,-2.781 2.35,-3.52 v -1.558 h -14.3 c -0.39,1.367 -0.66,2.5 -0.82,3.316 -0.35,1.762 -0.55,3.512 -0.55,5.352 l -0.11,5.781 c -0.04,3.988 -0.75,6.598 -2.15,7.93 -1.41,1.328 -4.03,1.988 -7.81,1.988 h -13.44 v -24.367 h -12.7 v 62.187 h 30.51 c 4.34,-0.078 7.7,-0.629 10.04,-1.609 z m 38.48,-37.11 h 15.78 l -7.78,24.5 z m 0.82,38.719 h 14.64 l 22.04,-62.187 h -14.07 l -4.02,12.769 h -22.93 l -4.3,-12.769 h -13.55 z m 76.95,-12.898 c -1.68,1.41 -4.06,2.078 -7.15,2.078 h -12.11 V 397.09 h 12.11 c 3.09,0 5.47,0.75 7.15,2.23 1.72,1.481 2.58,3.828 2.58,7.071 0,3.238 -0.86,5.55 -2.58,6.91 z m 9.88,-22.379 c -3.71,-3.043 -9.02,-4.57 -15.94,-4.57 h -13.2 v -22.34 h -12.89 v 62.187 h 27.07 c 6.25,0 11.25,-1.609 14.96,-4.808 3.71,-3.2 5.55,-8.2 5.55,-14.922 0,-7.348 -1.84,-12.5 -5.55,-15.547 z m 15.2,-26.91 v 62.187 h 12.85 V 402.48 h 24.3 v 23.719 h 12.93 v -62.187 h -12.93 v 27.726 h -24.3 v -27.726 z m 95.78,19.179 c 0.39,-2.851 1.17,-4.961 2.3,-6.371 2.11,-2.539 5.75,-3.832 10.86,-3.832 3.05,0 5.55,0.313 7.46,1.024 3.64,1.289 5.43,3.668 5.43,7.187 0,2.071 -0.9,3.672 -2.69,4.762 -1.8,1.129 -4.61,2.07 -8.48,2.93 l -6.56,1.488 c -6.49,1.441 -10.98,3.043 -13.44,4.762 -4.18,2.847 -6.29,7.339 -6.29,13.437 0,5.582 2.03,10.192 6.1,13.902 4.02,3.68 10,5.508 17.85,5.508 6.52,0 12.11,-1.718 16.76,-5.187 4.6,-3.481 7.03,-8.52 7.26,-15.121 h -12.5 c -0.19,3.711 -1.84,6.371 -4.88,7.968 -2.03,1.012 -4.53,1.563 -7.54,1.563 -3.36,0 -6.02,-0.699 -8.01,-2.031 -1.99,-1.371 -3.01,-3.239 -3.01,-5.66 0,-2.231 0.98,-3.872 2.97,-4.969 1.25,-0.742 3.95,-1.602 8.09,-2.571 l 10.7,-2.582 c 4.69,-1.128 8.24,-2.617 10.63,-4.527 3.71,-2.93 5.58,-7.152 5.58,-12.699 0,-5.66 -2.19,-10.391 -6.52,-14.141 -4.34,-3.75 -10.47,-5.621 -18.4,-5.621 -8.12,0 -14.49,1.828 -19.14,5.539 -4.61,3.672 -6.95,8.789 -6.95,15.242 z m 93.36,43.008 V 415.18 h -18.6 v -51.168 h -13.08 v 51.168 h -18.67 v 11.019 z m 47.34,-47.23 c 3.05,3.793 4.53,9.222 4.53,16.211 0,6.949 -1.48,12.379 -4.53,16.172 -3.01,3.828 -7.11,5.699 -12.26,5.699 -5.12,0 -9.26,-1.871 -12.31,-5.66 -3.05,-3.832 -4.61,-9.219 -4.61,-16.211 0,-6.989 1.56,-12.418 4.61,-16.211 3.05,-3.789 7.19,-5.699 12.31,-5.699 5.15,0 9.25,1.91 12.26,5.699 z m 8.13,-9.449 c -4.69,-4.848 -11.49,-7.231 -20.39,-7.231 -8.87,0 -15.67,2.383 -20.36,7.231 -6.32,5.929 -9.45,14.492 -9.45,25.66 0,11.41 3.13,19.922 9.45,25.66 4.69,4.808 11.49,7.23 20.36,7.23 8.9,0 15.7,-2.422 20.39,-7.23 6.29,-5.738 9.41,-14.25 9.41,-25.66 0,-11.168 -3.12,-19.731 -9.41,-25.66 z m 32.26,45.859 v -16.68 h 14.73 c 2.93,0 5.12,0.313 6.6,0.973 2.58,1.207 3.87,3.519 3.87,7.027 0,3.75 -1.25,6.289 -3.75,7.582 -1.41,0.739 -3.52,1.098 -6.33,1.098 z m 27.89,9.211 c 2.35,-1.012 4.34,-2.461 5.94,-4.371 1.37,-1.559 2.42,-3.321 3.2,-5.199 0.82,-1.911 1.21,-4.098 1.21,-6.559 0,-2.93 -0.74,-5.859 -2.26,-8.711 -1.49,-2.852 -3.95,-4.879 -7.38,-6.051 2.89,-1.14 4.92,-2.777 6.09,-4.929 1.21,-2.11 1.8,-5.348 1.8,-9.719 v -4.18 c 0,-2.82 0.11,-4.769 0.35,-5.781 0.35,-1.61 1.13,-2.781 2.38,-3.52 v -1.558 h -14.33 c -0.4,1.367 -0.67,2.5 -0.83,3.316 -0.35,1.762 -0.54,3.512 -0.54,5.352 l -0.08,5.781 c -0.08,3.988 -0.78,6.598 -2.19,7.93 -1.4,1.328 -3.98,1.988 -7.81,1.988 h -13.44 v -24.367 h -12.69 v 62.187 h 30.5 c 4.38,-0.078 7.7,-0.629 10.08,-1.609 z m 67.42,-9.41 h -32.89 v -13.2 h 30.2 v -10.82 h -30.2 v -15.98 h 34.42 v -11.168 h -47.11 v 62.187 h 45.58 z" /><path
             id="path34"
             style="fill:none;stroke:#000000;stroke-width:10;stroke-linecap:butt;stroke-linejoin:miter;stroke-miterlimit:10;stroke-dasharray:21.6, 21.6;stroke-dashoffset:0;stroke-opacity:1"
             d="m 5,14.9805 h 3311.99 v 720 H 5 Z" /><path
             id="path36"
             style="fill:#000000;fill-opacity:1;fill-rule:nonzero;stroke:none"
             d="m 257.578,656.781 c -0.976,4.258 -3.359,7.231 -7.187,8.91 -2.153,0.93 -4.532,1.36 -7.153,1.36 -5,0 -9.097,-1.871 -12.34,-5.66 -3.199,-3.789 -4.808,-9.45 -4.808,-17.071 0,-7.66 1.719,-13.05 5.199,-16.211 3.512,-3.199 7.461,-4.808 11.91,-4.808 4.379,0 7.93,1.289 10.711,3.789 2.809,2.539 4.531,5.82 5.149,9.89 h -14.368 v 10.391 h 25.899 v -33.359 h -8.602 l -1.328,7.769 c -2.5,-2.972 -4.762,-5.043 -6.75,-6.25 -3.441,-2.109 -7.66,-3.16 -12.66,-3.16 -8.238,0 -14.961,2.848 -20.23,8.551 -5.469,5.738 -8.25,13.598 -8.25,23.558 0,10.04 2.781,18.122 8.32,24.18 5.551,6.09 12.859,9.141 22,9.141 7.89,0 14.25,-2.031 19.019,-6.02 4.801,-4.019 7.582,-9.019 8.282,-15 z m 38.363,8.598 v -16.68 h 14.719 c 2.93,0 5.121,0.313 6.57,0.973 2.61,1.207 3.899,3.519 3.899,7.027 0,3.75 -1.25,6.289 -3.75,7.582 -1.399,0.739 -3.508,1.098 -6.328,1.098 z m 27.848,9.211 c 2.34,-1.008 4.332,-2.461 5.981,-4.371 1.359,-1.559 2.421,-3.321 3.199,-5.199 0.781,-1.911 1.172,-4.098 1.172,-6.559 0,-2.93 -0.743,-5.859 -2.231,-8.711 -1.48,-2.852 -3.941,-4.879 -7.379,-6.051 2.891,-1.14 4.918,-2.777 6.09,-4.929 1.219,-2.11 1.801,-5.348 1.801,-9.719 v -4.18 c 0,-2.82 0.117,-4.769 0.348,-5.781 0.32,-1.61 1.14,-2.781 2.351,-3.52 v -1.558 H 320.82 c -0.39,1.367 -0.66,2.5 -0.82,3.32 -0.352,1.758 -0.551,3.508 -0.551,5.348 l -0.07,5.781 c -0.078,3.988 -0.789,6.598 -2.188,7.93 -1.41,1.328 -4.031,1.988 -7.812,1.988 h -13.438 v -24.367 h -12.703 v 62.187 h 30.512 c 4.34,-0.078 7.699,-0.629 10.039,-1.609 z m 38.481,-37.11 h 15.781 l -7.781,24.5 z m 0.82,38.719 h 14.64 l 22.04,-62.187 h -14.071 l -4.019,12.769 h -22.93 l -4.301,-12.769 h -13.551 z m 76.949,-12.898 c -1.68,1.41 -4.059,2.078 -7.148,2.078 h -12.11 V 647.09 h 12.11 c 3.089,0 5.468,0.75 7.148,2.23 1.723,1.481 2.582,3.828 2.582,7.071 0,3.238 -0.859,5.55 -2.582,6.91 z m 9.883,-22.379 c -3.711,-3.043 -9.024,-4.57 -15.942,-4.57 h -13.199 v -22.34 h -12.89 v 62.187 h 27.07 c 6.25,0 11.25,-1.609 14.961,-4.808 3.707,-3.2 5.547,-8.2 5.547,-14.922 0,-7.348 -1.84,-12.5 -5.547,-15.547 z m 15.199,-26.91 v 62.187 h 12.848 V 652.48 h 24.301 v 23.719 h 12.929 V 614.012 H 502.27 v 27.726 h -24.301 v -27.726 z m 92.379,55.66 c 5.078,5.117 11.52,7.699 19.34,7.699 10.461,0 18.121,-3.441 22.961,-10.32 2.66,-3.821 4.109,-7.692 4.301,-11.602 H 591.09 c -0.86,3.012 -1.91,5.242 -3.238,6.762 -2.383,2.699 -5.864,4.059 -10.512,4.059 -4.719,0 -8.43,-1.911 -11.168,-5.7 -2.731,-3.832 -4.102,-9.218 -4.102,-16.211 0,-6.949 1.45,-12.187 4.34,-15.66 2.891,-3.48 6.52,-5.199 10.969,-5.199 4.57,0 8.051,1.48 10.43,4.449 1.332,1.602 2.421,4.031 3.281,7.231 h 12.859 c -1.097,-6.801 -3.988,-12.301 -8.597,-16.52 -4.653,-4.262 -10.582,-6.371 -17.813,-6.371 -8.949,0 -15.98,2.852 -21.09,8.59 -5.121,5.742 -7.66,13.672 -7.66,23.711 0,10.859 2.891,19.219 8.711,25.082 z m 96.051,-40.703 c 3.051,3.793 4.539,9.222 4.539,16.211 0,6.949 -1.488,12.379 -4.539,16.172 -3,3.828 -7.102,5.699 -12.223,5.699 -5.156,0 -9.258,-1.871 -12.348,-5.66 -3.039,-3.832 -4.57,-9.219 -4.57,-16.211 0,-6.989 1.531,-12.418 4.57,-16.211 3.09,-3.789 7.192,-5.699 12.348,-5.699 5.121,0 9.223,1.91 12.223,5.699 z m 8.129,-9.449 c -4.692,-4.848 -11.481,-7.231 -20.352,-7.231 -8.906,0 -15.707,2.383 -20.387,7.231 -6.293,5.929 -9.461,14.492 -9.461,25.66 0,11.41 3.168,19.922 9.461,25.66 4.68,4.808 11.481,7.23 20.387,7.23 8.871,0 15.66,-2.422 20.352,-7.23 6.289,-5.738 9.41,-14.25 9.41,-25.66 0,-11.168 -3.121,-19.731 -9.41,-25.66 z m 60.511,56.679 h 18.668 V 614.012 H 728.75 v 42.07 c 0,1.207 0.039,2.887 0.039,5.078 0.039,2.18 0.039,3.86 0.039,5.039 L 717.07,614.012 h -12.621 l -11.679,52.187 c 0,-1.179 0,-2.859 0.039,-5.039 0.043,-2.191 0.043,-3.871 0.043,-5.078 v -42.07 h -12.114 v 62.187 h 18.91 l 11.293,-48.91 z m 63.118,-12.898 c -1.68,1.41 -4.059,2.078 -7.149,2.078 H 766.051 V 647.09 h 12.109 c 3.09,0 5.469,0.75 7.149,2.23 1.722,1.481 2.582,3.828 2.582,7.071 0,3.238 -0.86,5.55 -2.582,6.91 z m 9.851,-22.379 c -3.711,-3.043 -8.988,-4.57 -15.898,-4.57 h -13.211 v -22.34 H 753.16 v 62.187 h 27.07 c 6.25,0 11.219,-1.609 14.93,-4.808 3.711,-3.2 5.578,-8.2 5.578,-14.922 0,-7.348 -1.867,-12.5 -5.578,-15.547 z m 55.07,-11.953 c 3.008,3.793 4.54,9.222 4.54,16.211 0,6.949 -1.532,12.379 -4.54,16.172 -3.039,3.828 -7.109,5.699 -12.261,5.699 -5.16,0 -9.258,-1.871 -12.348,-5.66 -3.043,-3.832 -4.57,-9.219 -4.57,-16.211 0,-6.989 1.527,-12.418 4.57,-16.211 3.09,-3.789 7.188,-5.699 12.348,-5.699 5.152,0 9.222,1.91 12.261,5.699 z m 8.09,-9.449 c -4.691,-4.848 -11.48,-7.231 -20.351,-7.231 -8.91,0 -15.699,2.383 -20.391,7.231 -6.289,5.929 -9.457,14.492 -9.457,25.66 0,11.41 3.168,19.922 9.457,25.66 4.692,4.808 11.481,7.23 20.391,7.23 8.871,0 15.66,-2.422 20.351,-7.23 6.289,-5.738 9.41,-14.25 9.41,-25.66 0,-11.168 -3.121,-19.731 -9.41,-25.66 z m 19.102,56.679 h 13.598 l 24.761,-43.437 v 43.437 h 12.11 v -62.187 h -12.969 l -25.391,44.179 V 614.012 H 877.422 Z M 985.941,665.18 h -32.929 v -13.2 h 30.226 v -10.82 h -30.226 v -15.98 h 34.449 v -11.168 h -47.152 v 62.187 h 45.632 z m 11.399,11.019 h 13.64 l 24.76,-43.437 v 43.437 h 12.07 v -62.187 h -12.97 l -25.39,44.179 v -44.179 h -12.11 z m 107.7,0 V 665.18 h -18.59 v -51.168 h -13.09 v 51.168 h -18.67 v 11.019 z" /><path
             id="path38"
             style="fill:#dae8fc;fill-opacity:1;fill-rule:nonzero;stroke:none"
             d="m 84.2188,1426.19 h 647.973 v 748.789 H 84.2188 Z" /><path
             id="path40"
             style="fill:none;stroke:#6c8ebf;stroke-width:10;stroke-linecap:butt;stroke-linejoin:miter;stroke-miterlimit:10;stroke-dasharray:none;stroke-opacity:1"
             d="m 84.2188,1426.19 h 647.973 v 748.789 H 84.2188 Z" /><path
             id="path42"
             style="fill:#000000;fill-opacity:1;fill-rule:nonzero;stroke:none"
             d="m 184.57,1835.18 h -32.929 v -13.2 h 30.238 v -10.82 h -30.238 v -15.98 h 34.449 v -11.17 h -47.141 v 62.19 h 45.621 z m 21.52,-51.17 h -15.11 l 20,31.68 -19.031,30.51 H 207.5 l 11.09,-20.24 11.371,20.24 H 245 l -19.02,-30 20.192,-32.19 h -15.781 l -11.801,21.17 z m 92.859,62.19 v -11.02 h -18.597 v -51.17 H 267.27 v 51.17 h -18.68 v 11.02 z m 20.582,-10.82 v -16.68 h 14.731 c 2.929,0 5.117,0.31 6.597,0.97 2.582,1.21 3.871,3.52 3.871,7.03 0,3.75 -1.25,6.29 -3.75,7.58 -1.41,0.74 -3.519,1.1 -6.332,1.1 z m 27.848,9.21 c 2.391,-1.01 4.383,-2.46 5.98,-4.37 1.371,-1.56 2.422,-3.32 3.2,-5.2 0.82,-1.91 1.211,-4.1 1.211,-6.56 0,-2.93 -0.739,-5.86 -2.258,-8.71 -1.492,-2.85 -3.953,-4.88 -7.391,-6.05 2.899,-1.14 4.93,-2.78 6.098,-4.93 1.211,-2.11 1.801,-5.35 1.801,-9.72 v -4.18 c 0,-2.82 0.109,-4.77 0.351,-5.78 0.348,-1.61 1.129,-2.78 2.34,-3.52 v -1.56 H 344.41 c -0.39,1.37 -0.66,2.5 -0.82,3.32 -0.352,1.76 -0.539,3.51 -0.539,5.35 l -0.082,5.78 c -0.078,3.99 -0.778,6.6 -2.188,7.93 -1.402,1.33 -3.98,1.99 -7.812,1.99 h -13.438 v -24.37 H 306.84 v 62.19 h 30.5 c 4.379,-0.08 7.699,-0.63 10.082,-1.61 z m 38.48,-37.11 h 15.782 l -7.77,24.5 z m 0.821,38.72 h 14.691 l 21.988,-62.19 h -14.058 l -4.031,12.77 h -22.891 l -4.328,-12.77 h -13.563 z m 50.55,-6.53 c 5.071,5.12 11.481,7.7 19.329,7.7 10.429,0 18.089,-3.44 22.929,-10.32 2.703,-3.82 4.102,-7.69 4.301,-11.6 H 470.82 c -0.859,3.01 -1.949,5.24 -3.242,6.76 -2.379,2.7 -5.898,4.06 -10.508,4.06 -4.73,0 -8.48,-1.91 -11.211,-5.7 -2.699,-3.83 -4.058,-9.22 -4.058,-16.21 0,-6.95 1.437,-12.19 4.289,-15.66 2.89,-3.48 6.57,-5.2 11.019,-5.2 4.532,0 8.012,1.48 10.391,4.45 1.328,1.6 2.422,4.03 3.32,7.23 h 12.852 c -1.133,-6.8 -3.981,-12.3 -8.633,-16.52 -4.609,-4.26 -10.551,-6.37 -17.769,-6.37 -8.95,0 -15.981,2.85 -21.098,8.59 -5.121,5.74 -7.692,13.67 -7.692,23.71 0,10.86 2.93,19.22 8.75,25.08 z m 101.481,6.53 v -11.02 h -18.633 v -51.17 h -13.047 v 51.17 H 488.32 v 11.02 z m 47.34,-47.23 c 3.008,3.79 4.539,9.22 4.539,16.21 0,6.95 -1.531,12.38 -4.539,16.17 -3.039,3.83 -7.102,5.7 -12.262,5.7 -5.16,0 -9.258,-1.87 -12.309,-5.66 -3.082,-3.83 -4.601,-9.22 -4.601,-16.21 0,-6.99 1.519,-12.42 4.601,-16.21 3.051,-3.79 7.149,-5.7 12.309,-5.7 5.16,0 9.223,1.91 12.262,5.7 z m 8.129,-9.45 c -4.731,-4.85 -11.52,-7.23 -20.391,-7.23 -8.91,0 -15.668,2.38 -20.391,7.23 -6.289,5.93 -9.449,14.49 -9.449,25.66 0,11.41 3.16,19.92 9.449,25.66 4.723,4.81 11.481,7.23 20.391,7.23 8.871,0 15.66,-2.42 20.391,-7.23 6.25,-5.74 9.371,-14.25 9.371,-25.66 0,-11.17 -3.121,-19.73 -9.371,-25.66 z m 32.269,45.86 v -16.68 h 14.723 c 2.93,0 5.117,0.31 6.558,0.97 2.579,1.21 3.911,3.52 3.911,7.03 0,3.75 -1.25,6.29 -3.789,7.58 -1.403,0.74 -3.512,1.1 -6.332,1.1 z m 27.852,9.21 c 2.34,-1.01 4.328,-2.46 5.969,-4.37 1.371,-1.56 2.429,-3.32 3.21,-5.2 0.782,-1.91 1.168,-4.1 1.168,-6.56 0,-2.93 -0.738,-5.86 -2.226,-8.71 -1.481,-2.85 -3.942,-4.88 -7.383,-6.05 2.852,-1.14 4.922,-2.78 6.09,-4.93 1.211,-2.11 1.801,-5.35 1.801,-9.72 v -4.18 c 0,-2.82 0.121,-4.77 0.351,-5.78 0.309,-1.61 1.098,-2.78 2.34,-3.52 v -1.56 h -14.293 c -0.387,1.37 -0.668,2.5 -0.859,3.32 -0.309,1.76 -0.508,3.51 -0.547,5.35 l -0.082,5.78 c -0.039,3.99 -0.781,6.6 -2.141,7.93 -1.41,1.33 -4.027,1.99 -7.859,1.99 h -13.391 v -24.37 H 613.75 v 62.19 h 30.512 c 4.328,-0.08 7.687,-0.63 10.039,-1.61 z" /><path
             id="path44"
             style="fill:#dae8fc;fill-opacity:1;fill-rule:nonzero;stroke:none"
             d="M 1661.02,1426.19 H 2165 v 748.789 h -503.98 z" /><path
             id="path46"
             style="fill:none;stroke:#6c8ebf;stroke-width:10;stroke-linecap:butt;stroke-linejoin:miter;stroke-miterlimit:10;stroke-dasharray:none;stroke-opacity:1"
             d="M 1661.02,1426.19 H 2165 v 748.789 h -503.98 z" /><path
             id="path48"
             style="fill:#000000;fill-opacity:1;fill-rule:nonzero;stroke:none"
             d="m 1728.59,1846.2 h 12.97 v -51.02 h 30.82 v -11.17 h -43.79 z m 92.5,-47.23 c 3.05,3.79 4.53,9.22 4.53,16.21 0,6.95 -1.48,12.38 -4.53,16.17 -3,3.83 -7.11,5.7 -12.22,5.7 -5.16,0 -9.26,-1.87 -12.35,-5.66 -3.04,-3.83 -4.61,-9.22 -4.61,-16.21 0,-6.99 1.57,-12.42 4.61,-16.21 3.09,-3.79 7.19,-5.7 12.35,-5.7 5.11,0 9.22,1.91 12.22,5.7 z m 8.13,-9.45 c -4.69,-4.85 -11.49,-7.23 -20.35,-7.23 -8.91,0 -15.71,2.38 -20.39,7.23 -6.29,5.93 -9.46,14.49 -9.46,25.66 0,11.41 3.17,19.92 9.46,25.66 4.68,4.81 11.48,7.23 20.39,7.23 8.86,0 15.66,-2.42 20.35,-7.23 6.29,-5.74 9.41,-14.25 9.41,-25.66 0,-11.17 -3.12,-19.73 -9.41,-25.66 z m 36.29,17.96 h 15.78 l -7.77,24.5 z m 0.82,38.72 h 14.65 l 22.03,-62.19 h -14.1 l -3.99,12.77 h -22.93 l -4.29,-12.77 h -13.6 z m 57.11,-10.82 v -40.59 h 11.99 c 6.13,0 10.39,3.05 12.81,9.06 1.33,3.32 1.99,7.31 1.99,11.88 0,6.32 -0.97,11.17 -2.96,14.57 -2,3.4 -5.94,5.08 -11.84,5.08 z m 23.79,9.45 c 4.37,-1.45 7.89,-4.06 10.58,-7.89 2.19,-3.09 3.67,-6.45 4.46,-10.04 0.78,-3.6 1.17,-7.03 1.17,-10.28 0,-8.28 -1.64,-15.27 -4.96,-21.01 -4.53,-7.73 -11.45,-11.6 -20.86,-11.6 h -26.8 v 62.19 h 26.8 c 3.86,-0.08 7.07,-0.51 9.61,-1.37 z m 71.91,-9.65 h -32.89 v -13.2 h 30.2 v -10.82 h -30.2 v -15.98 h 34.41 v -11.17 h -47.11 v 62.19 h 45.59 z m 24.61,0.2 v -16.68 h 14.73 c 2.93,0 5.11,0.31 6.56,0.97 2.62,1.21 3.91,3.52 3.91,7.03 0,3.75 -1.25,6.29 -3.75,7.58 -1.41,0.74 -3.52,1.1 -6.33,1.1 z m 27.85,9.21 c 2.35,-1.01 4.34,-2.46 5.98,-4.37 1.37,-1.56 2.42,-3.32 3.2,-5.2 0.78,-1.91 1.17,-4.1 1.17,-6.56 0,-2.93 -0.74,-5.86 -2.22,-8.71 -1.49,-2.85 -3.95,-4.88 -7.39,-6.05 2.89,-1.14 4.93,-2.78 6.1,-4.93 1.21,-2.11 1.79,-5.35 1.79,-9.72 v -4.18 c 0,-2.82 0.12,-4.77 0.36,-5.78 0.31,-1.61 1.13,-2.78 2.34,-3.52 v -1.56 h -14.3 c -0.39,1.37 -0.66,2.5 -0.82,3.32 -0.35,1.76 -0.54,3.51 -0.54,5.35 l -0.12,5.78 c -0.04,3.99 -0.74,6.6 -2.15,7.93 -1.41,1.33 -4.02,1.99 -7.81,1.99 h -13.44 v -24.37 h -12.7 v 62.19 h 30.51 c 4.34,-0.08 7.7,-0.63 10.04,-1.61 z" /><path
             id="path50"
             style="fill:none;stroke:#000000;stroke-width:10;stroke-linecap:butt;stroke-linejoin:miter;stroke-miterlimit:10;stroke-dasharray:21.6, 21.6;stroke-dashoffset:0;stroke-opacity:1"
             d="M 5,1123.81 H 2236.99 V 2391 H 5 Z" /><path
             id="path52"
             style="fill:#000000;fill-opacity:1;fill-rule:nonzero;stroke:none"
             d="m 137.07,2326.2 8.2,-35.63 1.8,-9.92 1.801,9.73 6.988,35.82 h 13.711 l 7.379,-35.63 1.922,-9.92 1.91,9.53 8.278,36.02 h 13.211 l -17.5,-62.19 h -12.391 l -7.539,36.37 -2.18,12.03 -2.191,-12.03 -7.5,-36.37 h -12.071 l -17.617,62.19 z m 112.731,-47.23 c 3.008,3.79 4.539,9.22 4.539,16.21 0,6.95 -1.531,12.38 -4.539,16.17 -3.039,3.83 -7.102,5.7 -12.262,5.7 -5.16,0 -9.258,-1.87 -12.309,-5.66 -3.082,-3.83 -4.609,-9.22 -4.609,-16.21 0,-6.99 1.527,-12.42 4.609,-16.21 3.051,-3.79 7.149,-5.7 12.309,-5.7 5.16,0 9.223,1.91 12.262,5.7 z m 8.129,-9.45 c -4.731,-4.85 -11.52,-7.23 -20.391,-7.23 -8.91,0 -15.66,2.38 -20.391,7.23 -6.289,5.93 -9.449,14.49 -9.449,25.66 0,11.41 3.16,19.92 9.449,25.66 4.731,4.81 11.481,7.23 20.391,7.23 8.871,0 15.66,-2.42 20.391,-7.23 6.25,-5.74 9.371,-14.25 9.371,-25.66 0,-11.17 -3.121,-19.73 -9.371,-25.66 z m 32.269,45.86 v -16.68 h 14.723 c 2.93,0 5.117,0.31 6.558,0.97 2.579,1.21 3.911,3.52 3.911,7.03 0,3.75 -1.25,6.29 -3.789,7.58 -1.403,0.74 -3.512,1.1 -6.332,1.1 z m 27.852,9.21 c 2.34,-1.01 4.328,-2.46 5.969,-4.37 1.371,-1.56 2.429,-3.32 3.21,-5.2 0.782,-1.91 1.168,-4.1 1.168,-6.56 0,-2.93 -0.738,-5.86 -2.226,-8.71 -1.481,-2.85 -3.942,-4.88 -7.383,-6.05 2.852,-1.14 4.883,-2.78 6.09,-4.93 1.211,-2.11 1.801,-5.35 1.801,-9.72 v -4.18 c 0,-2.82 0.121,-4.77 0.351,-5.78 0.309,-1.61 1.09,-2.78 2.348,-3.52 v -1.56 h -14.301 c -0.387,1.37 -0.668,2.5 -0.859,3.32 -0.309,1.76 -0.508,3.51 -0.547,5.35 l -0.082,5.78 c -0.039,3.99 -0.781,6.6 -2.141,7.93 -1.41,1.33 -4.027,1.99 -7.859,1.99 h -13.391 v -24.37 H 277.5 v 62.19 h 30.512 c 4.328,-0.08 7.687,-0.63 10.039,-1.61 z m 21.48,1.53 h 44.059 v -10.94 h -31.168 v -14.3 h 27.308 v -10.82 h -27.308 v -26.05 h -12.891 z m 52.739,0.08 h 13 v -51.02 h 30.781 v -11.17 H 392.27 Z m 92.531,-47.23 c 3.008,3.79 4.539,9.22 4.539,16.21 0,6.95 -1.531,12.38 -4.539,16.17 -3,3.83 -7.102,5.7 -12.262,5.7 -5.117,0 -9.258,-1.87 -12.309,-5.66 -3.082,-3.83 -4.609,-9.22 -4.609,-16.21 0,-6.99 1.527,-12.42 4.609,-16.21 3.051,-3.79 7.192,-5.7 12.309,-5.7 5.16,0 9.262,1.91 12.262,5.7 z m 8.129,-9.45 c -4.692,-4.85 -11.481,-7.23 -20.391,-7.23 -8.867,0 -15.66,2.38 -20.348,7.23 -6.332,5.93 -9.461,14.49 -9.461,25.66 0,11.41 3.129,19.92 9.461,25.66 4.688,4.81 11.481,7.23 20.348,7.23 8.91,0 15.699,-2.42 20.391,-7.23 6.25,-5.74 9.41,-14.25 9.41,-25.66 0,-11.17 -3.16,-19.73 -9.41,-25.66 z m 27.769,56.68 8.211,-35.63 1.789,-9.92 1.801,9.73 6.988,35.82 h 13.711 l 7.391,-35.63 1.91,-9.92 1.879,9.53 8.32,36.02 h 13.199 l -17.5,-62.19 H 556.02 l -7.54,36.37 -2.191,12.03 -2.187,-12.03 -7.5,-36.37 h -12.071 l -17.652,62.19 z m 102.93,-6.53 c 5.082,5.12 11.531,7.7 19.34,7.7 10.472,0 18.121,-3.44 22.972,-10.32 2.649,-3.82 4.098,-7.69 4.289,-11.6 h -13 c -0.82,3.01 -1.921,5.24 -3.25,6.76 -2.339,2.7 -5.859,4.06 -10.5,4.06 -4.73,0 -8.441,-1.91 -11.179,-5.7 -2.731,-3.83 -4.102,-9.22 -4.102,-16.21 0,-6.95 1.449,-12.19 4.34,-15.66 2.891,-3.48 6.52,-5.2 10.981,-5.2 4.57,0 8.039,1.48 10.429,4.45 1.321,1.6 2.422,4.03 3.281,7.23 h 12.891 c -1.141,-6.8 -4.031,-12.3 -8.641,-16.52 -4.64,-4.26 -10.539,-6.37 -17.808,-6.37 -8.902,0 -15.942,2.85 -21.094,8.59 -5.117,5.74 -7.656,13.67 -7.656,23.71 0,10.86 2.887,19.22 8.707,25.08 z m 96.062,-40.7 c 3.039,3.79 4.571,9.22 4.571,16.21 0,6.95 -1.532,12.38 -4.571,16.17 -3.011,3.83 -7.113,5.7 -12.23,5.7 -5.16,0 -9.262,-1.87 -12.34,-5.66 -3.051,-3.83 -4.57,-9.22 -4.57,-16.21 0,-6.99 1.519,-12.42 4.57,-16.21 3.078,-3.79 7.18,-5.7 12.34,-5.7 5.117,0 9.219,1.91 12.23,5.7 z m 8.118,-9.45 c -4.688,-4.85 -11.481,-7.23 -20.348,-7.23 -8.91,0 -15.699,2.38 -20.391,7.23 -6.289,5.93 -9.449,14.49 -9.449,25.66 0,11.41 3.16,19.92 9.449,25.66 4.692,4.81 11.481,7.23 20.391,7.23 8.867,0 15.66,-2.42 20.348,-7.23 6.293,-5.74 9.421,-14.25 9.421,-25.66 0,-11.17 -3.128,-19.73 -9.421,-25.66 z m 60.511,56.68 h 18.711 v -62.19 h -12.109 v 42.07 c 0,1.21 0,2.89 0.039,5.08 0,2.14 0.039,3.86 0.039,5.04 l -11.801,-52.19 H 770.59 l -11.68,52.19 c 0,-1.18 0.039,-2.86 0.039,-5.04 0.031,-2.19 0.031,-3.87 0.031,-5.08 v -42.07 h -12.101 v 62.19 h 18.902 l 11.328,-48.91 z m 63.129,-12.9 c -1.679,1.41 -4.07,2.08 -7.148,2.08 h -12.11 v -18.29 h 12.11 c 3.078,0 5.469,0.75 7.148,2.23 1.711,1.48 2.571,3.83 2.571,7.07 0,3.24 -0.86,5.55 -2.571,6.91 z m 9.84,-22.38 c -3.711,-3.04 -8.988,-4.57 -15.898,-4.57 h -13.2 v -22.34 h -12.89 v 62.19 h 27.07 c 6.25,0 11.207,-1.61 14.918,-4.81 3.75,-3.2 5.59,-8.2 5.59,-14.92 0,-7.35 -1.84,-12.5 -5.59,-15.55 z m 55.082,-11.95 c 3.008,3.79 4.527,9.22 4.527,16.21 0,6.95 -1.519,12.38 -4.527,16.17 -3.051,3.83 -7.109,5.7 -12.269,5.7 -5.153,0 -9.262,-1.87 -12.301,-5.66 -3.09,-3.83 -4.61,-9.22 -4.61,-16.21 0,-6.99 1.52,-12.42 4.61,-16.21 3.039,-3.79 7.148,-5.7 12.301,-5.7 5.16,0 9.218,1.91 12.269,5.7 z m 8.117,-9.45 c -4.718,-4.85 -11.519,-7.23 -20.386,-7.23 -8.903,0 -15.661,2.38 -20.391,7.23 -6.289,5.93 -9.449,14.49 -9.449,25.66 0,11.41 3.16,19.92 9.449,25.66 4.73,4.81 11.488,7.23 20.391,7.23 8.867,0 15.668,-2.42 20.386,-7.23 6.25,-5.74 9.383,-14.25 9.383,-25.66 0,-11.17 -3.133,-19.73 -9.383,-25.66 z m 19.063,56.68 h 13.64 l 24.758,-43.44 v 43.44 h 12.11 v -62.19 h -13.008 l -25.391,44.18 v -44.18 h -12.109 z m 108.519,-11.02 h -32.93 v -13.2 h 30.24 v -10.82 h -30.24 v -15.98 h 34.45 v -11.17 h -47.14 v 62.19 h 45.62 z m 11.41,11.02 h 13.63 l 24.77,-43.44 v 43.44 h 12.1 v -62.19 h -13 l -25.39,44.18 v -44.18 h -12.11 z m 107.69,0 v -11.02 h -18.59 v -51.17 h -13.09 v 51.17 h -18.67 v 11.02 z" /><path
             id="path54"
             style="fill:#dae8fc;fill-opacity:1;fill-rule:nonzero;stroke:none"
             d="m 804.219,1426.19 h 791.992 v 748.789 H 804.219 Z" /><path
             id="path56"
             style="fill:none;stroke:#6c8ebf;stroke-width:10;stroke-linecap:butt;stroke-linejoin:miter;stroke-miterlimit:10;stroke-dasharray:none;stroke-opacity:1"
             d="m 804.219,1426.19 h 791.992 v 748.789 H 804.219 Z" /><path
             id="path58"
             style="fill:#000000;fill-opacity:1;fill-rule:nonzero;stroke:none"
             d="m 910.98,1846.2 v -11.02 h -18.64 v -51.17 h -13.039 v 51.17 H 860.59 v 11.02 z m 20.54,-10.82 v -16.68 h 14.73 c 2.93,0 5.121,0.31 6.602,0.97 2.578,1.21 3.867,3.52 3.867,7.03 0,3.75 -1.25,6.29 -3.75,7.58 -1.41,0.74 -3.52,1.1 -6.328,1.1 z m 27.89,9.21 c 2.352,-1.01 4.34,-2.46 5.981,-4.37 1.328,-1.56 2.379,-3.32 3.199,-5.2 0.789,-1.91 1.18,-4.1 1.18,-6.56 0,-2.93 -0.75,-5.86 -2.231,-8.71 -1.519,-2.85 -3.988,-4.88 -7.379,-6.05 2.852,-1.14 4.879,-2.78 6.09,-4.93 1.172,-2.11 1.801,-5.35 1.801,-9.72 v -4.18 c 0,-2.82 0.07,-4.77 0.308,-5.78 0.352,-1.61 1.129,-2.78 2.379,-3.52 v -1.56 h -14.289 c -0.429,1.37 -0.711,2.5 -0.859,3.32 -0.36,1.76 -0.512,3.51 -0.551,5.35 l -0.078,5.78 c -0.082,3.99 -0.781,6.6 -2.191,7.93 -1.36,1.33 -3.981,1.99 -7.809,1.99 H 931.52 v -24.37 h -12.692 v 62.19 h 30.512 c 4.371,-0.08 7.73,-0.63 10.07,-1.61 z m 38.442,-37.11 h 15.778 l -7.73,24.5 z m 0.82,38.72 h 14.688 l 22.03,-62.19 h -14.1 l -4.02,12.77 h -22.891 l -4.301,-12.77 H 976.48 Z m 44.298,0 h 13.63 l 24.77,-43.44 v 43.44 h 12.11 v -62.19 h -13.01 l -25.39,44.18 v -44.18 h -12.11 z m 71.95,-43.01 c 0.39,-2.85 1.17,-4.96 2.35,-6.37 2.11,-2.54 5.7,-3.83 10.82,-3.83 3.08,0 5.54,0.31 7.46,1.02 3.63,1.29 5.47,3.67 5.47,7.19 0,2.07 -0.9,3.67 -2.74,4.76 -1.8,1.13 -4.61,2.07 -8.48,2.93 l -6.56,1.49 c -6.48,1.44 -10.94,3.04 -13.44,4.76 -4.18,2.85 -6.25,7.34 -6.25,13.44 0,5.58 2,10.19 6.06,13.9 4.06,3.68 10,5.51 17.85,5.51 6.56,0 12.15,-1.72 16.76,-5.19 4.65,-3.48 7.07,-8.52 7.26,-15.12 h -12.46 c -0.23,3.71 -1.87,6.37 -4.88,7.97 -2.03,1.01 -4.57,1.56 -7.58,1.56 -3.32,0 -6.01,-0.7 -8.01,-2.03 -1.99,-1.37 -3,-3.24 -3,-5.66 0,-2.23 1.01,-3.87 2.97,-4.97 1.25,-0.74 3.94,-1.6 8.08,-2.57 l 10.74,-2.58 c 4.69,-1.13 8.25,-2.62 10.63,-4.53 3.71,-2.93 5.55,-7.15 5.55,-12.7 0,-5.66 -2.15,-10.39 -6.53,-14.14 -4.33,-3.75 -10.47,-5.62 -18.4,-5.62 -8.08,0 -14.45,1.83 -19.1,5.54 -4.65,3.67 -6.95,8.79 -6.95,15.24 z m 48.2,42.93 h 44.07 v -10.94 h -31.17 v -14.3 h 27.3 v -10.82 h -27.3 v -26.05 h -12.9 z m 92.5,-47.15 c 3.05,3.79 4.58,9.22 4.58,16.21 0,6.95 -1.53,12.38 -4.58,16.17 -3,3.83 -7.1,5.7 -12.22,5.7 -5.16,0 -9.26,-1.87 -12.35,-5.66 -3.04,-3.83 -4.57,-9.22 -4.57,-16.21 0,-6.99 1.53,-12.42 4.57,-16.21 3.09,-3.79 7.19,-5.7 12.35,-5.7 5.12,0 9.22,1.91 12.22,5.7 z m 8.13,-9.45 c -4.69,-4.85 -11.48,-7.23 -20.35,-7.23 -8.91,0 -15.7,2.38 -20.39,7.23 -6.29,5.93 -9.46,14.49 -9.46,25.66 0,11.41 3.17,19.92 9.46,25.66 4.69,4.81 11.48,7.23 20.39,7.23 8.87,0 15.66,-2.42 20.35,-7.23 6.29,-5.74 9.41,-14.25 9.41,-25.66 0,-11.17 -3.12,-19.73 -9.41,-25.66 z m 32.3,45.86 v -16.68 h 14.69 c 2.93,0 5.16,0.31 6.6,0.97 2.58,1.21 3.87,3.52 3.87,7.03 0,3.75 -1.25,6.29 -3.75,7.58 -1.41,0.74 -3.51,1.1 -6.33,1.1 z m 27.86,9.21 c 2.34,-1.01 4.33,-2.46 5.97,-4.37 1.33,-1.56 2.42,-3.32 3.21,-5.2 0.78,-1.91 1.17,-4.1 1.17,-6.56 0,-2.93 -0.74,-5.86 -2.23,-8.71 -1.48,-2.85 -3.94,-4.88 -7.38,-6.05 2.85,-1.14 4.88,-2.78 6.09,-4.93 1.17,-2.11 1.8,-5.35 1.8,-9.72 v -4.18 c 0,-2.82 0.12,-4.77 0.31,-5.78 0.35,-1.61 1.13,-2.78 2.38,-3.52 v -1.56 h -14.29 c -0.39,1.37 -0.71,2.5 -0.86,3.32 -0.31,1.76 -0.51,3.51 -0.55,5.35 l -0.08,5.78 c -0.04,3.99 -0.78,6.6 -2.18,7.93 -1.37,1.33 -3.99,1.99 -7.82,1.99 h -13.4 v -24.37 h -12.69 v 62.19 h 30.47 c 4.37,-0.08 7.73,-0.63 10.08,-1.61 z m 62.69,1.61 h 18.67 v -62.19 h -12.11 v 42.07 c 0,1.21 0,2.89 0.04,5.08 0.04,2.14 0.04,3.86 0.04,5.04 l -11.76,-52.19 h -12.61 l -11.68,52.19 c 0,-1.18 0,-2.9 0.04,-5.04 0.04,-2.19 0.04,-3.87 0.04,-5.08 v -42.07 h -12.11 v 62.19 h 18.9 l 11.29,-48.91 11.21,48.91 z m 76.64,-11.02 h -32.89 v -13.2 h 30.2 v -10.82 h -30.2 v -15.98 h 34.42 v -11.17 h -47.15 v 62.19 h 45.62 z m 24.61,0.2 v -16.68 h 14.73 c 2.93,0 5.12,0.31 6.56,0.97 2.62,1.21 3.91,3.52 3.91,7.03 0,3.75 -1.25,6.29 -3.75,7.58 -1.41,0.74 -3.52,1.1 -6.33,1.1 z m 27.85,9.21 c 2.35,-1.01 4.34,-2.46 5.98,-4.37 1.37,-1.56 2.42,-3.32 3.2,-5.2 0.78,-1.91 1.17,-4.1 1.17,-6.56 0,-2.93 -0.74,-5.86 -2.22,-8.71 -1.49,-2.85 -3.95,-4.88 -7.38,-6.05 2.89,-1.14 4.92,-2.78 6.09,-4.93 1.21,-2.11 1.8,-5.35 1.8,-9.72 v -4.18 c 0,-2.82 0.11,-4.77 0.35,-5.78 0.31,-1.61 1.13,-2.78 2.34,-3.52 v -1.56 h -14.3 c -0.39,1.37 -0.66,2.5 -0.82,3.32 -0.35,1.76 -0.54,3.51 -0.54,5.35 l -0.12,5.78 c -0.04,3.99 -0.74,6.6 -2.15,7.93 -1.4,1.33 -4.02,1.99 -7.81,1.99 h -13.44 v -24.37 h -12.69 v 62.19 h 30.5 c 4.34,-0.08 7.7,-0.63 10.04,-1.61 z" /><path
             id="path60"
             style="fill:#e1d5e7;fill-opacity:1;fill-rule:nonzero;stroke:none"
             d="m 2308.98,1123.81 h 1008.01 v 979.18 H 2308.98 Z" /><path
             id="path62"
             style="fill:none;stroke:#9673a6;stroke-width:10;stroke-linecap:butt;stroke-linejoin:miter;stroke-miterlimit:10;stroke-dasharray:none;stroke-opacity:1"
             d="m 2308.98,1123.81 h 1008.01 v 979.18 H 2308.98 Z" /><path
             id="path64"
             style="fill:#000000;fill-opacity:1;fill-rule:nonzero;stroke:none"
             d="m 2517.5,1695.38 v -40.59 h 11.99 c 6.13,0 10.39,3.05 12.81,9.06 1.33,3.32 2,7.31 2,11.88 0,6.32 -1.02,11.17 -2.97,14.57 -1.99,3.4 -5.94,5.08 -11.84,5.08 z m 23.79,9.45 c 4.37,-1.45 7.89,-4.06 10.59,-7.89 2.18,-3.09 3.63,-6.45 4.41,-10.04 0.82,-3.6 1.21,-7.03 1.21,-10.28 0,-8.28 -1.68,-15.27 -5,-21.01 -4.49,-7.73 -11.45,-11.6 -20.82,-11.6 h -26.8 v 62.19 h 26.8 c 3.83,-0.08 7.03,-0.51 9.61,-1.37 z m 37.81,-60.82 h -12.89 v 62.19 h 12.89 z m 21.49,19.18 c 0.39,-2.85 1.17,-4.96 2.3,-6.37 2.11,-2.54 5.74,-3.83 10.86,-3.83 3.05,0 5.55,0.31 7.46,1.02 3.63,1.29 5.43,3.67 5.43,7.19 0,2.07 -0.9,3.67 -2.69,4.76 -1.8,1.13 -4.61,2.07 -8.48,2.93 l -6.56,1.49 c -6.49,1.44 -10.98,3.04 -13.44,4.76 -4.18,2.85 -6.29,7.34 -6.29,13.44 0,5.58 2.03,10.19 6.09,13.9 4.03,3.68 10,5.51 17.85,5.51 6.53,0 12.11,-1.72 16.76,-5.19 4.61,-3.48 7.03,-8.52 7.27,-15.12 h -12.5 c -0.2,3.71 -1.84,6.37 -4.88,7.97 -2.04,1.01 -4.54,1.56 -7.54,1.56 -3.36,0 -6.02,-0.7 -8.01,-2.03 -1.99,-1.37 -3.01,-3.24 -3.01,-5.66 0,-2.23 0.98,-3.87 2.97,-4.97 1.25,-0.74 3.94,-1.6 8.09,-2.57 l 10.7,-2.58 c 4.69,-1.13 8.24,-2.62 10.62,-4.53 3.71,-2.93 5.59,-7.15 5.59,-12.7 0,-5.66 -2.19,-10.39 -6.52,-14.14 -4.34,-3.75 -10.47,-5.62 -18.4,-5.62 -8.13,0 -14.49,1.83 -19.14,5.54 -4.61,3.67 -6.96,8.79 -6.96,15.24 z m 93.36,43.01 v -11.02 h -18.6 v -51.17 h -13.08 v 51.17 h -18.68 v 11.02 z m 20.58,-10.82 v -16.68 h 14.73 c 2.93,0 5.12,0.31 6.56,0.97 2.58,1.21 3.91,3.52 3.91,7.03 0,3.75 -1.25,6.29 -3.79,7.58 -1.41,0.74 -3.52,1.1 -6.33,1.1 z m 27.85,9.21 c 2.35,-1.01 4.34,-2.46 5.98,-4.37 1.37,-1.56 2.42,-3.32 3.2,-5.2 0.78,-1.91 1.17,-4.1 1.17,-6.56 0,-2.93 -0.74,-5.86 -2.22,-8.71 -1.49,-2.85 -3.95,-4.88 -7.39,-6.05 2.9,-1.14 4.93,-2.78 6.1,-4.93 1.21,-2.11 1.8,-5.35 1.8,-9.72 v -4.18 c 0,-2.82 0.11,-4.77 0.35,-5.78 0.31,-1.61 1.09,-2.78 2.34,-3.52 v -1.56 h -14.3 c -0.39,1.37 -0.66,2.5 -0.86,3.32 -0.31,1.76 -0.5,3.51 -0.54,5.35 l -0.08,5.78 c -0.04,3.99 -0.78,6.6 -2.15,7.93 -1.4,1.33 -4.02,1.99 -7.85,1.99 h -13.4 v -24.37 h -12.69 v 62.19 h 30.5 c 4.34,-0.08 7.7,-0.63 10.04,-1.61 z m 33.36,-60.58 h -12.89 v 62.19 h 12.89 z m 24.69,51.37 v -13.72 h 15.27 c 2.74,0 4.96,0.51 6.64,1.57 1.72,1.01 2.54,2.85 2.54,5.47 0,2.89 -1.09,4.8 -3.36,5.7 -1.95,0.66 -4.41,0.98 -7.42,0.98 z m 0,-23.99 v -16.6 h 15.27 c 2.74,0 4.85,0.39 6.37,1.09 2.77,1.37 4.14,3.95 4.14,7.78 0,3.24 -1.33,5.46 -4.02,6.68 -1.49,0.66 -3.56,1.01 -6.29,1.05 z m 34.02,28.16 c 1.92,-2.65 2.85,-5.82 2.85,-9.49 0,-3.79 -0.93,-6.83 -2.85,-9.14 -1.09,-1.29 -2.65,-2.5 -4.72,-3.55 3.16,-1.14 5.54,-2.97 7.18,-5.47 1.61,-2.5 2.43,-5.55 2.43,-9.14 0,-3.67 -0.94,-6.99 -2.78,-9.88 -1.21,-1.96 -2.65,-3.6 -4.45,-4.93 -1.99,-1.52 -4.34,-2.54 -7.07,-3.12 -2.7,-0.55 -5.66,-0.82 -8.83,-0.82 h -28.16 v 62.19 h 30.19 c 7.62,-0.12 13.01,-2.35 16.21,-6.65 z m 15.71,6.65 h 13.2 v -38.25 c 0,-4.25 0.51,-7.38 1.52,-9.37 1.57,-3.48 5,-5.2 10.28,-5.2 5.27,0 8.67,1.72 10.27,5.2 0.98,1.99 1.48,5.12 1.48,9.37 v 38.25 h 13.21 v -38.25 c 0,-6.6 -1.02,-11.75 -3.05,-15.43 -3.83,-6.75 -11.13,-10.11 -21.91,-10.11 -10.78,0 -18.09,3.36 -21.92,10.11 -2.07,3.68 -3.08,8.83 -3.08,15.43 z m 107.5,0 v -11.02 h -18.6 v -51.17 h -13.08 v 51.17 h -18.71 v 11.02 z m 19.45,-62.19 h -12.89 v 62.19 h 12.89 z m 51.84,14.96 c 3.04,3.79 4.53,9.22 4.53,16.21 0,6.95 -1.49,12.38 -4.53,16.17 -3.01,3.83 -7.11,5.7 -12.23,5.7 -5.16,0 -9.26,-1.87 -12.34,-5.66 -3.05,-3.83 -4.61,-9.22 -4.61,-16.21 0,-6.99 1.56,-12.42 4.61,-16.21 3.08,-3.79 7.18,-5.7 12.34,-5.7 5.12,0 9.22,1.91 12.23,5.7 z m 8.12,-9.45 c -4.69,-4.85 -11.48,-7.23 -20.35,-7.23 -8.91,0 -15.7,2.38 -20.39,7.23 -6.29,5.93 -9.45,14.49 -9.45,25.66 0,11.41 3.16,19.92 9.45,25.66 4.69,4.81 11.48,7.23 20.39,7.23 8.87,0 15.66,-2.42 20.35,-7.23 6.29,-5.74 9.41,-14.25 9.41,-25.66 0,-11.17 -3.12,-19.73 -9.41,-25.66 z m 19.06,56.68 h 13.64 l 24.76,-43.44 v 43.44 h 12.11 v -62.19 h -13.01 l -25.39,44.18 v -44.18 h -12.11 z" /><path
             id="path66"
             style="fill:#000000;fill-opacity:1;fill-rule:nonzero;stroke:none"
             d="m 2537.23,1598.89 c 5.07,5.12 11.52,7.66 19.33,7.66 10.47,0 18.13,-3.4 22.93,-10.28 2.7,-3.86 4.14,-7.73 4.34,-11.6 h -13.01 c -0.86,2.97 -1.91,5.24 -3.24,6.76 -2.38,2.69 -5.86,4.02 -10.51,4.02 -4.73,0 -8.44,-1.87 -11.17,-5.7 -2.74,-3.79 -4.1,-9.22 -4.1,-16.17 0,-6.99 1.44,-12.19 4.33,-15.67 2.85,-3.47 6.53,-5.23 10.98,-5.23 4.57,0 8.05,1.48 10.43,4.49 1.33,1.6 2.42,3.99 3.28,7.19 h 12.85 c -1.09,-6.76 -3.98,-12.27 -8.59,-16.52 -4.65,-4.26 -10.59,-6.37 -17.81,-6.37 -8.95,0 -15.98,2.85 -21.1,8.59 -5.12,5.78 -7.65,13.67 -7.65,23.71 0,10.86 2.89,19.22 8.71,25.12 z m 96.05,-40.7 c 3.05,3.79 4.53,9.18 4.53,16.17 0,6.99 -1.48,12.38 -4.53,16.21 -3.01,3.79 -7.11,5.7 -12.23,5.7 -5.15,0 -9.25,-1.91 -12.34,-5.7 -3.05,-3.79 -4.61,-9.18 -4.61,-16.21 0,-6.99 1.56,-12.38 4.61,-16.17 3.09,-3.79 7.19,-5.71 12.34,-5.71 5.12,0 9.22,1.92 12.23,5.71 z m 8.13,-9.46 c -4.69,-4.84 -11.49,-7.26 -20.36,-7.26 -8.9,0 -15.7,2.42 -20.39,7.26 -6.28,5.94 -9.45,14.5 -9.45,25.63 0,11.41 3.17,19.96 9.45,25.66 4.69,4.85 11.49,7.27 20.39,7.27 8.87,0 15.67,-2.42 20.36,-7.27 6.29,-5.7 9.41,-14.25 9.41,-25.66 0,-11.13 -3.12,-19.69 -9.41,-25.63 z m 60.5,56.65 h 18.68 v -62.19 h -12.11 v 42.07 c 0,1.21 0.04,2.89 0.04,5.08 0.03,2.18 0.03,3.86 0.03,5.04 l -11.75,-52.19 h -12.62 l -11.68,52.19 c 0,-1.18 0,-2.86 0.04,-5.04 0.04,-2.19 0.04,-3.87 0.04,-5.08 v -42.07 h -12.11 v 62.19 h 18.91 l 11.28,-48.87 z m 63.13,-12.86 c -1.68,1.37 -4.06,2.07 -7.15,2.07 h -12.11 v -18.32 h 12.11 c 3.09,0 5.47,0.75 7.15,2.23 1.72,1.48 2.54,3.87 2.54,7.11 0,3.24 -0.82,5.55 -2.54,6.91 z m 9.84,-22.42 c -3.71,-3.01 -8.98,-4.53 -15.9,-4.53 h -13.2 v -22.38 h -12.89 v 62.19 h 27.07 c 6.25,0 11.21,-1.61 14.92,-4.81 3.71,-3.2 5.59,-8.16 5.59,-14.88 0,-7.35 -1.88,-12.54 -5.59,-15.59 z m 55.08,-11.91 c 3.01,3.79 4.53,9.18 4.53,16.17 0,6.99 -1.52,12.38 -4.53,16.21 -3.05,3.79 -7.11,5.7 -12.26,5.7 -5.16,0 -9.26,-1.91 -12.35,-5.7 -3.05,-3.79 -4.57,-9.18 -4.57,-16.21 0,-6.99 1.52,-12.38 4.57,-16.17 3.09,-3.79 7.19,-5.71 12.35,-5.71 5.15,0 9.21,1.92 12.26,5.71 z m 8.09,-9.46 c -4.69,-4.84 -11.49,-7.26 -20.35,-7.26 -8.91,0 -15.71,2.42 -20.4,7.26 -6.28,5.94 -9.45,14.5 -9.45,25.63 0,11.41 3.17,19.96 9.45,25.66 4.69,4.85 11.49,7.27 20.4,7.27 8.86,0 15.66,-2.42 20.35,-7.27 6.29,-5.7 9.41,-14.25 9.41,-25.66 0,-11.13 -3.12,-19.69 -9.41,-25.63 z m 19.1,56.65 h 13.59 l 24.77,-43.4 v 43.4 h 12.11 v -62.19 h -12.97 l -25.39,44.18 v -44.18 h -12.11 z m 108.51,-11.02 h -32.93 v -13.2 h 30.24 v -10.78 h -30.24 v -15.98 h 34.46 v -11.21 h -47.15 v 62.19 h 45.62 z m 11.41,11.02 h 13.63 l 24.73,-43.4 v 43.4 h 12.11 v -62.19 h -12.97 l -25.39,44.18 v -44.18 h -12.11 z m 107.7,0 v -11.02 h -18.6 v -51.17 h -13.08 v 51.17 h -18.68 v 11.02 z" /><path
             id="path68"
             style="fill:#ffe6cc;fill-opacity:1;fill-rule:nonzero;stroke:none"
             d="m 1733.01,101.391 h 648.008 V 662.989 H 1733.01 Z" /><path
             id="path70"
             style="fill:none;stroke:#d79b00;stroke-width:10;stroke-linecap:butt;stroke-linejoin:miter;stroke-miterlimit:10;stroke-dasharray:none;stroke-opacity:1"
             d="m 1733.01,101.391 h 648.008 V 662.989 H 1733.01 Z" /><path
             id="path72"
             style="fill:#000000;fill-opacity:1;fill-rule:nonzero;stroke:none"
             d="m 1947.58,406.781 c -0.98,4.258 -3.36,7.231 -7.19,8.91 -2.15,0.93 -4.53,1.36 -7.15,1.36 -5,0 -9.1,-1.871 -12.34,-5.66 -3.2,-3.789 -4.81,-9.45 -4.81,-17.071 0,-7.66 1.72,-13.05 5.2,-16.211 3.51,-3.199 7.46,-4.808 11.91,-4.808 4.38,0 7.93,1.289 10.71,3.789 2.81,2.539 4.53,5.82 5.15,9.89 h -14.37 v 10.391 h 25.9 v -33.359 h -8.6 l -1.33,7.769 c -2.5,-2.972 -4.76,-5.043 -6.75,-6.25 -3.44,-2.109 -7.66,-3.16 -12.66,-3.16 -8.24,0 -14.96,2.848 -20.23,8.551 -5.47,5.738 -8.25,13.598 -8.25,23.558 0,10.04 2.78,18.122 8.32,24.18 5.55,6.09 12.86,9.141 22,9.141 7.89,0 14.25,-2.031 19.02,-6.02 4.8,-4.019 7.58,-9.019 8.28,-15 z m 66.6,19.418 h 18.67 v -62.187 h -12.11 v 42.066 c 0,1.211 0,2.891 0.04,5.082 0.04,2.18 0.04,3.86 0.04,5.039 l -11.76,-52.187 h -12.61 l -11.68,52.187 c 0,-1.179 0,-2.859 0.03,-5.039 0,-2.191 0.04,-3.871 0.04,-5.082 v -42.066 h -12.11 v 62.187 h 18.91 l 11.29,-48.91 11.21,48.91 z m 26.05,-32.429 h 24.22 v -11.36 h -24.22 z m 50.28,-6.29 h 15.78 l -7.74,24.5 z m 0.82,38.719 h 14.69 l 21.99,-62.187 h -14.06 l -4.03,12.769 h -22.89 l -4.3,-12.769 h -13.59 z m 76.99,-12.898 c -1.72,1.41 -4.1,2.078 -7.15,2.078 h -12.11 V 397.09 h 12.11 c 3.05,0 5.43,0.75 7.15,2.23 1.68,1.481 2.54,3.828 2.54,7.071 0,3.238 -0.86,5.55 -2.54,6.91 z m 9.84,-22.379 c -3.71,-3.043 -9.02,-4.57 -15.89,-4.57 h -13.21 v -22.34 h -12.93 v 62.187 h 27.11 c 6.21,0 11.21,-1.609 14.92,-4.808 3.72,-3.2 5.55,-8.2 5.55,-14.922 0,-7.348 -1.83,-12.5 -5.55,-15.547 z m 27.19,-26.91 h -12.93 v 62.187 h 12.93 z" /><path
             id="path74"
             style="fill:#dae8fc;fill-opacity:1;fill-rule:nonzero;stroke:none"
             d="m 98.5898,101.391 h 1562.42 V 533.379 H 98.5898 Z" /><path
             id="path76"
             style="fill:none;stroke:#6c8ebf;stroke-width:10;stroke-linecap:butt;stroke-linejoin:miter;stroke-miterlimit:10;stroke-dasharray:none;stroke-opacity:1"
             d="m 98.5898,101.391 h 1562.42 V 533.379 H 98.5898 Z" /><path
             id="path78"
             style="fill:#000000;fill-opacity:1;fill-rule:nonzero;stroke:none"
             d="m 620.391,336.781 c -0.981,4.258 -3.403,7.231 -7.231,8.91 -2.109,0.93 -4.488,1.36 -7.109,1.36 -5,0 -9.141,-1.871 -12.34,-5.66 -3.242,-3.789 -4.84,-9.45 -4.84,-17.071 0,-7.66 1.75,-13.05 5.231,-16.211 3.476,-3.199 7.457,-4.808 11.918,-4.808 4.332,0 7.929,1.289 10.699,3.789 2.769,2.539 4.492,5.82 5.16,9.89 h -14.418 v 10.391 h 25.937 v -33.359 h -8.628 l -1.29,7.769 c -2.5,-2.972 -4.769,-5.043 -6.761,-6.25 -3.438,-2.109 -7.66,-3.16 -12.66,-3.16 -8.239,0 -15,2.848 -20.231,8.551 -5.508,5.738 -8.238,13.598 -8.238,23.558 0,10.04 2.769,18.122 8.32,24.18 5.539,6.09 12.852,9.141 21.949,9.141 7.93,0 14.262,-2.031 19.063,-6.02 4.808,-4.019 7.539,-9.019 8.238,-15 z m 66.558,19.418 h 18.711 v -62.187 h -12.109 v 42.066 c 0,1.211 0,2.891 0.039,5.082 0,2.18 0.039,3.86 0.039,5.039 L 681.84,294.012 h -12.621 l -11.68,52.187 c 0,-1.179 0.039,-2.859 0.039,-5.039 0.043,-2.191 0.043,-3.871 0.043,-5.082 v -42.066 h -12.109 v 62.187 h 18.898 l 11.328,-48.91 z m 64.071,-43.008 c 0.39,-2.851 1.171,-4.961 2.3,-6.371 2.11,-2.539 5.739,-3.832 10.86,-3.832 3.05,0 5.55,0.313 7.461,1.024 3.629,1.289 5.429,3.668 5.429,7.187 0,2.071 -0.898,3.672 -2.691,4.762 -1.801,1.129 -4.609,2.07 -8.481,2.93 l -6.597,1.488 c -6.449,1.441 -10.942,3.043 -13.403,4.762 -4.179,2.847 -6.289,7.339 -6.289,13.437 0,5.582 2.032,10.192 6.09,13.902 4.031,3.68 10,5.508 17.821,5.508 6.558,0 12.14,-1.718 16.789,-5.187 4.613,-3.481 7.031,-8.52 7.269,-15.121 h -12.5 c -0.199,3.711 -1.84,6.371 -4.879,7.968 -2.039,1.012 -4.539,1.563 -7.539,1.563 -3.359,0 -6.019,-0.699 -8.012,-2.031 -2.027,-1.371 -3.007,-3.239 -3.007,-5.66 0,-2.231 0.98,-3.872 2.929,-4.969 1.289,-0.742 3.981,-1.602 8.129,-2.571 l 10.699,-2.582 c 4.692,-1.128 8.243,-2.617 10.622,-4.527 3.71,-2.93 5.589,-7.152 5.589,-12.699 0,-5.66 -2.187,-10.391 -6.519,-14.141 -4.34,-3.75 -10.469,-5.621 -18.399,-5.621 -8.132,0 -14.492,1.828 -19.14,5.539 -4.61,3.672 -6.961,8.789 -6.961,15.242 z m 94.179,31.989 H 812.27 v -13.2 h 30.191 V 321.16 H 812.27 v -15.98 h 34.41 v -11.168 h -47.11 v 62.187 h 45.629 z m 24.602,0.199 v -16.68 h 14.687 c 2.934,0 5.16,0.313 6.602,0.973 2.582,1.207 3.871,3.519 3.871,7.027 0,3.75 -1.25,6.289 -3.75,7.582 -1.41,0.739 -3.512,1.098 -6.332,1.098 z m 27.859,9.211 c 2.34,-1.012 4.328,-2.461 5.969,-4.371 1.332,-1.559 2.422,-3.321 3.211,-5.199 0.781,-1.911 1.172,-4.098 1.172,-6.559 0,-2.93 -0.742,-5.859 -2.231,-8.711 -1.48,-2.852 -3.941,-4.879 -7.383,-6.051 2.852,-1.14 4.883,-2.777 6.09,-4.929 1.172,-2.11 1.801,-5.348 1.801,-9.719 v -4.18 c 0,-2.82 0.121,-4.769 0.313,-5.781 0.347,-1.61 1.128,-2.781 2.378,-3.52 v -1.558 h -14.289 c -0.39,1.367 -0.711,2.5 -0.863,3.316 -0.308,1.762 -0.508,3.512 -0.547,5.352 l -0.082,5.781 c -0.039,3.988 -0.777,6.598 -2.179,7.93 -1.372,1.328 -3.989,1.988 -7.821,1.988 h -13.398 v -24.367 h -12.692 v 62.187 h 30.469 c 4.371,-0.078 7.731,-0.629 10.082,-1.609 z m 57.852,1.609 h 13.508 l -21.211,-62.187 h -12.258 l -21.02,62.187 h 13.867 l 13.512,-47.23 z m 33.117,-62.187 h -12.93 v 62.187 h 12.93 z m 18.091,55.66 c 5.04,5.117 11.48,7.699 19.33,7.699 10.43,0 18.09,-3.441 22.93,-10.32 2.66,-3.821 4.11,-7.692 4.3,-11.602 h -12.97 c -0.86,3.012 -1.95,5.242 -3.28,6.762 -2.34,2.699 -5.86,4.059 -10.51,4.059 -4.68,0 -8.43,-1.911 -11.17,-5.7 -2.73,-3.832 -4.06,-9.218 -4.06,-16.211 0,-6.949 1.41,-12.187 4.3,-15.66 2.89,-3.48 6.56,-5.199 11.01,-5.199 4.53,0 8.01,1.48 10.39,4.449 1.33,1.602 2.42,4.031 3.32,7.231 h 12.85 c -1.13,-6.801 -3.98,-12.301 -8.63,-16.52 -4.61,-4.262 -10.55,-6.371 -17.77,-6.371 -8.95,0 -15.98,2.852 -21.1,8.59 -5.11,5.742 -7.691,13.672 -7.691,23.711 0,10.859 2.931,19.219 8.751,25.082 z m 102.26,-4.492 h -32.89 v -13.2 h 30.2 v -10.82 h -30.2 v -15.98 h 34.42 v -11.168 h -47.11 v 62.187 h 45.58 z M 1130,313.191 c 0.39,-2.851 1.17,-4.961 2.34,-6.371 2.11,-2.539 5.71,-3.832 10.82,-3.832 3.09,0 5.59,0.313 7.46,1.024 3.64,1.289 5.47,3.668 5.47,7.187 0,2.071 -0.89,3.672 -2.69,4.762 -1.8,1.129 -4.65,2.07 -8.48,2.93 l -6.6,1.488 c -6.44,1.441 -10.94,3.043 -13.4,4.762 -4.22,2.847 -6.29,7.339 -6.29,13.437 0,5.582 2.03,10.192 6.06,13.902 4.06,3.68 10,5.508 17.85,5.508 6.56,0 12.15,-1.718 16.76,-5.187 4.65,-3.481 7.07,-8.52 7.3,-15.121 h -12.5 c -0.23,3.711 -1.83,6.371 -4.88,7.968 -2.03,1.012 -4.57,1.563 -7.58,1.563 -3.32,0 -6.02,-0.699 -8.01,-2.031 -1.99,-1.371 -2.97,-3.239 -2.97,-5.66 0,-2.231 0.98,-3.872 2.93,-4.969 1.29,-0.742 3.99,-1.602 8.13,-2.571 l 10.7,-2.582 c 4.69,-1.128 8.24,-2.617 10.63,-4.527 3.71,-2.93 5.58,-7.152 5.58,-12.699 0,-5.66 -2.18,-10.391 -6.52,-14.141 -4.38,-3.75 -10.51,-5.621 -18.44,-5.621 -8.08,0 -14.45,1.828 -19.1,5.539 -4.65,3.672 -6.95,8.789 -6.95,15.242 z" /><path
             id="path80"
             style="fill:#ffe6cc;fill-opacity:1;fill-rule:nonzero;stroke:none"
             d="m 84.2188,1188.62 h 2080.78 v 180 H 84.2188 Z" /><path
             id="path82"
             style="fill:none;stroke:#d79b00;stroke-width:10;stroke-linecap:butt;stroke-linejoin:miter;stroke-miterlimit:10;stroke-dasharray:none;stroke-opacity:1"
             d="m 84.2188,1188.62 h 2080.78 v 180 H 84.2188 Z" /><path
             id="path84"
             style="fill:#000000;fill-opacity:1;fill-rule:nonzero;stroke:none"
             d="m 378.59,1326.2 h 13.211 v -38.25 c 0,-4.25 0.5,-7.38 1.519,-9.37 1.559,-3.48 5,-5.2 10.27,-5.2 5.281,0 8.68,1.72 10.281,5.2 0.969,1.99 1.481,5.12 1.481,9.37 v 38.25 h 13.199 v -38.25 c 0,-6.6 -1.012,-11.75 -3.039,-15.43 -3.832,-6.75 -11.133,-10.11 -21.922,-10.11 -10.781,0 -18.078,3.36 -21.91,10.11 -2.071,3.68 -3.09,8.83 -3.09,15.43 z m 98.711,0 h 13.519 l -21.211,-62.19 h -12.308 l -21.012,62.19 h 13.91 l 13.473,-47.23 z m 77.621,-12.9 c -1.684,1.41 -4.063,2.08 -7.152,2.08 h -12.11 v -18.29 h 12.11 c 3.089,0 5.468,0.75 7.152,2.23 1.719,1.48 2.578,3.83 2.578,7.07 0,3.24 -0.859,5.55 -2.578,6.91 z m 9.848,-22.38 c -3.719,-3.04 -8.989,-4.57 -15.899,-4.57 H 535.66 v -22.34 h -12.89 v 62.19 h 27.07 c 6.25,0 11.211,-1.61 14.93,-4.81 3.71,-3.2 5.582,-8.2 5.582,-14.92 0,-7.35 -1.872,-12.5 -5.582,-15.55 z m 28.281,24.46 v -16.68 h 14.719 c 2.929,0 5.121,0.31 6.609,0.97 2.57,1.21 3.859,3.52 3.859,7.03 0,3.75 -1.25,6.29 -3.75,7.58 -1.398,0.74 -3.508,1.1 -6.328,1.1 z m 27.89,9.21 c 2.34,-1.01 4.329,-2.46 5.969,-4.37 1.328,-1.56 2.391,-3.32 3.211,-5.2 0.777,-1.91 1.168,-4.1 1.168,-6.56 0,-2.93 -0.738,-5.86 -2.23,-8.71 -1.52,-2.85 -3.981,-4.88 -7.379,-6.05 2.851,-1.14 4.879,-2.78 6.09,-4.93 1.179,-2.11 1.8,-5.35 1.8,-9.72 v -4.18 c 0,-2.82 0.078,-4.77 0.309,-5.78 0.351,-1.61 1.141,-2.78 2.391,-3.52 v -1.56 h -14.301 c -0.43,1.37 -0.699,2.5 -0.86,3.32 -0.347,1.76 -0.507,3.51 -0.55,5.35 l -0.079,5.78 c -0.07,3.99 -0.781,6.6 -2.179,7.93 -1.371,1.33 -3.992,1.99 -7.821,1.99 h -13.429 v -24.37 h -12.699 v 62.19 h 30.507 c 4.371,-0.08 7.731,-0.63 10.082,-1.61 z m 61.207,-45.62 c 3.051,3.79 4.532,9.22 4.532,16.21 0,6.95 -1.481,12.38 -4.532,16.17 -3.007,3.83 -7.109,5.7 -12.269,5.7 -5.109,0 -9.219,-1.87 -12.301,-5.66 -3.047,-3.83 -4.609,-9.22 -4.609,-16.21 0,-6.99 1.562,-12.42 4.609,-16.21 3.082,-3.79 7.192,-5.7 12.301,-5.7 5.16,0 9.262,1.91 12.269,5.7 z m 8.122,-9.45 c -4.68,-4.85 -11.481,-7.23 -20.391,-7.23 -8.859,0 -15.66,2.38 -20.348,7.23 -6.293,5.93 -9.453,14.49 -9.453,25.66 0,11.41 3.16,19.92 9.453,25.66 4.688,4.81 11.489,7.23 20.348,7.23 8.91,0 15.711,-2.42 20.391,-7.23 6.289,-5.74 9.421,-14.25 9.421,-25.66 0,-11.17 -3.132,-19.73 -9.421,-25.66 z m 55.71,56.68 h 13.469 l -21.211,-62.19 H 725.98 l -21.019,62.19 h 13.867 l 13.512,-47.23 z m 67.141,-11.02 H 780.23 v -13.2 h 30.2 v -10.82 h -30.2 v -15.98 h 34.418 v -11.17 h -47.109 v 62.19 h 45.582 z m 11.41,11.02 h 13.629 l 24.77,-43.44 v 43.44 h 12.109 v -62.19 h -13.008 l -25.39,44.18 v -44.18 h -12.11 z m 79.571,-38.72 h 15.738 l -7.731,24.5 z m 0.777,38.72 h 14.691 l 22.032,-62.19 H 927.5 l -4.02,12.77 h -22.89 l -4.301,-12.77 h -13.59 z m 44.301,0 h 13.629 l 24.769,-43.44 v 43.44 h 12.113 v -62.19 h -12.972 l -25.43,44.18 v -44.18 H 949.18 Z m 68.59,-6.53 c 5.04,5.12 11.49,7.7 19.3,7.7 10.47,0 18.13,-3.44 22.97,-10.32 2.66,-3.82 4.1,-7.69 4.3,-11.6 h -13.01 c -0.82,3.01 -1.92,5.24 -3.24,6.76 -2.35,2.7 -5.86,4.06 -10.51,4.06 -4.73,0 -8.44,-1.91 -11.17,-5.7 -2.74,-3.83 -4.11,-9.22 -4.11,-16.21 0,-6.95 1.45,-12.19 4.34,-15.66 2.89,-3.48 6.56,-5.2 10.98,-5.2 4.57,0 8.04,1.48 10.43,4.45 1.33,1.6 2.42,4.03 3.28,7.23 h 12.89 c -1.13,-6.8 -4.02,-12.3 -8.63,-16.52 -4.61,-4.26 -10.55,-6.37 -17.78,-6.37 -8.94,0 -15.97,2.85 -21.09,8.59 -5.12,5.74 -7.7,13.67 -7.7,23.71 0,10.86 2.93,19.22 8.75,25.08 z m 102.27,-4.49 h -32.89 v -13.2 h 30.19 v -10.82 h -30.19 v -15.98 h 34.41 v -11.17 h -47.11 v 62.19 h 45.59 z m 81.56,0 h -32.89 v -13.2 h 30.2 v -10.82 h -30.2 v -15.98 h 34.41 v -11.17 h -47.1 v 62.19 h 45.58 z m 21.52,-51.17 h -15.07 l 19.96,31.68 -19.03,30.51 h 15.55 l 11.09,-20.24 11.37,20.24 h 15.04 l -19.02,-30 20.19,-32.19 h -15.78 l -11.8,21.17 z m 92.9,62.19 v -11.02 h -18.64 v -51.17 h -13.04 v 51.17 h -18.72 v 11.02 z m 20.54,-10.82 v -16.68 h 14.73 c 2.93,0 5.12,0.31 6.6,0.97 2.58,1.21 3.87,3.52 3.87,7.03 0,3.75 -1.25,6.29 -3.75,7.58 -1.41,0.74 -3.52,1.1 -6.33,1.1 z m 27.89,9.21 c 2.35,-1.01 4.34,-2.46 5.94,-4.37 1.37,-1.56 2.42,-3.32 3.24,-5.2 0.78,-1.91 1.17,-4.1 1.17,-6.56 0,-2.93 -0.74,-5.86 -2.22,-8.71 -1.53,-2.85 -3.99,-4.88 -7.38,-6.05 2.85,-1.14 4.88,-2.78 6.09,-4.93 1.17,-2.11 1.8,-5.35 1.8,-9.72 v -4.18 c 0,-2.82 0.07,-4.77 0.31,-5.78 0.35,-1.61 1.13,-2.78 2.38,-3.52 v -1.56 h -14.3 c -0.43,1.37 -0.7,2.5 -0.86,3.32 -0.35,1.76 -0.5,3.51 -0.54,5.35 l -0.08,5.78 c -0.08,3.99 -0.78,6.6 -2.19,7.93 -1.36,1.33 -3.98,1.99 -7.81,1.99 h -13.44 v -24.37 h -12.69 v 62.19 h 30.51 c 4.37,-0.08 7.73,-0.63 10.07,-1.61 z m 38.44,-37.11 h 15.78 l -7.73,24.5 z m 0.82,38.72 h 14.69 l 22.03,-62.19 h -14.1 l -4.03,12.77 h -22.89 l -4.29,-12.77 h -13.6 z m 50.55,-6.53 c 5.08,5.12 11.52,7.7 19.33,7.7 10.47,0 18.13,-3.44 22.93,-10.32 2.7,-3.82 4.1,-7.69 4.34,-11.6 h -13.01 c -0.86,3.01 -1.91,5.24 -3.24,6.76 -2.38,2.7 -5.86,4.06 -10.51,4.06 -4.72,0 -8.48,-1.91 -11.17,-5.7 -2.73,-3.83 -4.1,-9.22 -4.1,-16.21 0,-6.95 1.44,-12.19 4.33,-15.66 2.86,-3.48 6.53,-5.2 10.98,-5.2 4.57,0 8.01,1.48 10.43,4.45 1.29,1.6 2.42,4.03 3.28,7.23 h 12.85 c -1.13,-6.8 -3.98,-12.3 -8.63,-16.52 -4.61,-4.26 -10.55,-6.37 -17.77,-6.37 -8.95,0 -15.98,2.85 -21.1,8.59 -5.11,5.74 -7.65,13.67 -7.65,23.71 0,10.86 2.89,19.22 8.71,25.08 z m 101.48,6.53 v -11.02 h -18.59 v -51.17 h -13.09 v 51.17 h -18.71 v 11.02 z m 47.35,-47.23 c 3,3.79 4.53,9.22 4.53,16.21 0,6.95 -1.53,12.38 -4.53,16.17 -3.05,3.83 -7.11,5.7 -12.27,5.7 -5.16,0 -9.26,-1.87 -12.3,-5.66 -3.09,-3.83 -4.61,-9.22 -4.61,-16.21 0,-6.99 1.52,-12.42 4.61,-16.21 3.04,-3.79 7.14,-5.7 12.3,-5.7 5.16,0 9.22,1.91 12.27,5.7 z m 8.12,-9.45 c -4.69,-4.85 -11.48,-7.23 -20.39,-7.23 -8.87,0 -15.66,2.38 -20.35,7.23 -6.33,5.93 -9.45,14.49 -9.45,25.66 0,11.41 3.12,19.92 9.45,25.66 4.69,4.81 11.48,7.23 20.35,7.23 8.91,0 15.7,-2.42 20.39,-7.23 6.25,-5.74 9.41,-14.25 9.41,-25.66 0,-11.17 -3.16,-19.73 -9.41,-25.66 z m 32.27,45.86 v -16.68 h 14.72 c 2.93,0 5.12,0.31 6.57,0.97 2.61,1.21 3.9,3.52 3.9,7.03 0,3.75 -1.25,6.29 -3.75,7.58 -1.4,0.74 -3.51,1.1 -6.33,1.1 z m 27.85,9.21 c 2.34,-1.01 4.33,-2.46 5.97,-4.37 1.37,-1.56 2.43,-3.32 3.21,-5.2 0.78,-1.91 1.17,-4.1 1.17,-6.56 0,-2.93 -0.74,-5.86 -2.23,-8.71 -1.48,-2.85 -3.94,-4.88 -7.38,-6.05 2.89,-1.14 4.92,-2.78 6.09,-4.93 1.22,-2.11 1.8,-5.35 1.8,-9.72 v -4.18 c 0,-2.82 0.12,-4.77 0.35,-5.78 0.31,-1.61 1.14,-2.78 2.35,-3.52 v -1.56 h -14.3 c -0.39,1.37 -0.66,2.5 -0.82,3.32 -0.35,1.76 -0.55,3.51 -0.55,5.35 l -0.11,5.78 c -0.04,3.99 -0.79,6.6 -2.15,7.93 -1.41,1.33 -4.03,1.99 -7.82,1.99 h -13.43 v -24.37 h -12.7 v 62.19 h 30.51 c 4.33,-0.08 7.69,-0.63 10.04,-1.61 z m 62.46,-37.11 h 15.74 l -7.73,24.5 z m 0.78,38.72 h 14.69 l 22.03,-62.19 h -14.1 l -4.03,12.77 h -22.89 l -4.29,-12.77 h -13.6 z m 76.99,-12.9 c -1.72,1.41 -4.1,2.08 -7.15,2.08 h -12.11 v -18.29 h 12.11 c 3.05,0 5.43,0.75 7.15,2.23 1.68,1.48 2.54,3.83 2.54,7.07 0,3.24 -0.86,5.55 -2.54,6.91 z m 9.85,-22.38 c -3.71,-3.04 -9.03,-4.57 -15.9,-4.57 h -13.21 v -22.34 h -12.92 v 62.19 h 27.1 c 6.25,0 11.22,-1.61 14.93,-4.81 3.71,-3.2 5.58,-8.2 5.58,-14.92 0,-7.35 -1.87,-12.5 -5.58,-15.55 z m 27.18,-26.91 h -12.93 v 62.19 h 12.93 z" /><path
             id="path86"
             style="fill:#f5f5f5;fill-opacity:1;fill-rule:nonzero;stroke:none"
             d="M 3388.98,14.9883 H 3893 v 2102.42 h -504.02 z" /><path
             id="path88"
             style="fill:none;stroke:#666666;stroke-width:10;stroke-linecap:butt;stroke-linejoin:miter;stroke-miterlimit:10;stroke-dasharray:none;stroke-opacity:1"
             d="M 3388.98,14.9883 H 3893 v 2102.42 h -504.02 z" /><path
             id="path90"
             style="fill:#000000;fill-opacity:1;fill-rule:nonzero;stroke:none"
             d="m 3428.59,1106.2 h 12.97 v -51.02 h 30.82 v -11.17 h -43.79 z m 92.5,-47.23 c 3.05,3.79 4.53,9.22 4.53,16.21 0,6.95 -1.48,12.38 -4.53,16.17 -3,3.83 -7.11,5.7 -12.22,5.7 -5.16,0 -9.26,-1.87 -12.35,-5.66 -3.04,-3.83 -4.61,-9.22 -4.61,-16.21 0,-6.99 1.57,-12.42 4.61,-16.21 3.09,-3.79 7.19,-5.7 12.35,-5.7 5.11,0 9.22,1.91 12.22,5.7 z m 8.13,-9.45 c -4.69,-4.85 -11.49,-7.23 -20.35,-7.23 -8.91,0 -15.71,2.38 -20.39,7.23 -6.29,5.93 -9.46,14.49 -9.46,25.66 0,11.41 3.17,19.92 9.46,25.66 4.68,4.81 11.48,7.23 20.39,7.23 8.86,0 15.66,-2.42 20.35,-7.23 6.29,-5.74 9.41,-14.25 9.41,-25.66 0,-11.17 -3.12,-19.73 -9.41,-25.66 z m 61.09,37.26 c -0.97,4.26 -3.4,7.23 -7.22,8.91 -2.11,0.93 -4.5,1.36 -7.11,1.36 -5,0 -9.14,-1.87 -12.35,-5.66 -3.24,-3.79 -4.84,-9.45 -4.84,-17.07 0,-7.66 1.76,-13.05 5.23,-16.21 3.48,-3.2 7.46,-4.81 11.92,-4.81 4.33,0 7.93,1.29 10.7,3.79 2.77,2.54 4.49,5.82 5.16,9.89 h -14.38 v 10.39 h 25.9 v -33.36 h -8.63 l -1.29,7.77 c -2.5,-2.97 -4.77,-5.04 -6.76,-6.25 -3.44,-2.11 -7.66,-3.16 -12.66,-3.16 -8.24,0 -15,2.85 -20.23,8.55 -5.51,5.74 -8.24,13.6 -8.24,23.56 0,10.04 2.77,18.12 8.32,24.18 5.55,6.09 12.85,9.14 21.99,9.14 7.89,0 14.22,-2.03 19.02,-6.02 4.81,-4.02 7.54,-9.02 8.25,-15 z m 67.15,0 c -0.98,4.26 -3.36,7.23 -7.19,8.91 -2.15,0.93 -4.53,1.36 -7.15,1.36 -5,0 -9.1,-1.87 -12.34,-5.66 -3.2,-3.79 -4.8,-9.45 -4.8,-17.07 0,-7.66 1.72,-13.05 5.23,-16.21 3.48,-3.2 7.42,-4.81 11.88,-4.81 4.37,0 7.93,1.29 10.7,3.79 2.81,2.54 4.53,5.82 5.16,9.89 h -14.38 v 10.39 h 25.9 v -33.36 h -8.59 l -1.33,7.77 c -2.5,-2.97 -4.73,-5.04 -6.76,-6.25 -3.4,-2.11 -7.62,-3.16 -12.66,-3.16 -8.24,0 -14.96,2.85 -20.23,8.55 -5.47,5.74 -8.24,13.6 -8.24,23.56 0,10.04 2.77,18.12 8.32,24.18 5.54,6.09 12.89,9.14 21.99,9.14 7.89,0 14.26,-2.03 19.02,-6.02 4.81,-4.02 7.58,-9.02 8.28,-15 z m 37.27,-42.77 h -12.89 v 62.19 h 12.89 z m 11.87,62.19 h 13.6 l 24.76,-43.44 v 43.44 h 12.11 v -62.19 h -12.97 l -25.43,44.18 v -44.18 h -12.07 z m 104.34,-19.42 c -0.98,4.26 -3.4,7.23 -7.23,8.91 -2.15,0.93 -4.53,1.36 -7.11,1.36 -5.04,0 -9.14,-1.87 -12.34,-5.66 -3.24,-3.79 -4.85,-9.45 -4.85,-17.07 0,-7.66 1.76,-13.05 5.24,-16.21 3.47,-3.2 7.46,-4.81 11.87,-4.81 4.38,0 7.93,1.29 10.75,3.79 2.77,2.54 4.49,5.82 5.15,9.89 h -14.41 v 10.39 h 25.9 v -33.36 h -8.6 l -1.29,7.77 c -2.54,-2.97 -4.76,-5.04 -6.75,-6.25 -3.44,-2.11 -7.66,-3.16 -12.66,-3.16 -8.24,0 -15,2.85 -20.27,8.55 -5.47,5.74 -8.21,13.6 -8.21,23.56 0,10.04 2.78,18.12 8.32,24.18 5.51,6.09 12.85,9.14 21.96,9.14 7.93,0 14.25,-2.03 19.06,-6.02 4.8,-4.02 7.54,-9.02 8.24,-15 z" /><path
             id="path92"
             style="fill:#f5f5f5;fill-opacity:1;fill-rule:nonzero;stroke:none"
             d="M 2308.98,2174.98 H 3893 V 2391 H 2308.98 Z" /><path
             id="path94"
             style="fill:none;stroke:#666666;stroke-width:10;stroke-linecap:butt;stroke-linejoin:miter;stroke-miterlimit:10;stroke-dasharray:none;stroke-opacity:1"
             d="M 2308.98,2174.98 H 3893 V 2391 H 2308.98 Z" /><path
             id="path96"
             style="fill:#000000;fill-opacity:1;fill-rule:nonzero;stroke:none"
             d="m 2805.59,2287.48 h 15.78 l -7.78,24.5 z m 0.78,38.72 h 14.68 l 22.04,-62.19 h -14.11 l -3.98,12.77 h -22.93 l -4.3,-12.77 h -13.59 z m 76.99,-12.9 c -1.68,1.41 -4.06,2.08 -7.15,2.08 h -12.11 v -18.29 h 12.11 c 3.09,0 5.47,0.75 7.15,2.23 1.72,1.48 2.58,3.83 2.58,7.07 0,3.24 -0.86,5.55 -2.58,6.91 z m 9.84,-22.38 c -3.71,-3.04 -8.98,-4.57 -15.9,-4.57 h -13.2 v -22.34 h -12.89 v 62.19 h 27.07 c 6.25,0 11.21,-1.61 14.92,-4.81 3.71,-3.2 5.59,-8.2 5.59,-14.92 0,-7.35 -1.88,-12.5 -5.59,-15.55 z m 27.19,-26.91 h -12.89 v 62.19 h 12.89 z m 77.85,42.77 c -0.97,4.26 -3.4,7.23 -7.22,8.91 -2.11,0.93 -4.5,1.36 -7.11,1.36 -5,0 -9.14,-1.87 -12.35,-5.66 -3.24,-3.79 -4.84,-9.45 -4.84,-17.07 0,-7.66 1.76,-13.05 5.23,-16.21 3.48,-3.2 7.46,-4.81 11.92,-4.81 4.33,0 7.93,1.29 10.7,3.79 2.77,2.54 4.49,5.82 5.16,9.89 h -14.42 v 10.39 h 25.94 v -33.36 h -8.63 l -1.29,7.77 c -2.5,-2.97 -4.77,-5.04 -6.76,-6.25 -3.44,-2.11 -7.66,-3.16 -12.66,-3.16 -8.24,0 -15,2.85 -20.23,8.55 -5.51,5.74 -8.24,13.6 -8.24,23.56 0,10.04 2.77,18.12 8.32,24.18 5.54,6.09 12.85,9.14 21.95,9.14 7.93,0 14.26,-2.03 19.06,-6.02 4.81,-4.02 7.54,-9.02 8.25,-15 z m 42.35,-19.3 h 15.78 l -7.78,24.5 z m 0.82,38.72 h 14.68 l 22,-62.19 h -14.07 l -4.02,12.77 h -22.89 l -4.34,-12.77 h -13.55 z m 89.68,0 v -11.02 h -18.59 v -51.17 h -13.09 v 51.17 h -18.67 v 11.02 z m 53.56,-11.02 h -32.89 v -13.2 h 30.19 v -10.82 h -30.19 v -15.98 h 34.41 v -11.17 h -47.11 v 62.19 h 45.59 z m 20.12,11.02 8.2,-35.63 1.8,-9.92 1.79,9.73 7.03,35.82 h 13.71 l 7.39,-35.63 1.87,-9.92 1.92,9.53 8.32,36.02 h 13.2 l -17.54,-62.19 h -12.38 l -7.5,36.37 -2.23,12.03 -2.19,-12.03 -7.5,-36.37 h -12.07 l -17.61,62.19 z m 89.96,-38.72 h 15.78 l -7.78,24.5 z m 0.82,38.72 h 14.68 l 22,-62.19 h -14.07 l -4.02,12.77 h -22.89 l -4.34,-12.77 h -13.55 z m 80,0 h 14.72 l -20.82,-38.83 v -23.36 h -12.97 v 23.36 l -21.52,38.83 h 15.31 l 12.89,-27.11 z" /></g></g></g></g></svg>